<svg class="toyplot-canvas-Canvas" xmlns:toyplot="http://www.sandia.gov/toyplot" xmlns:xlink="http://www.w3.org/1999/xlink" xmlns="http://www.w3.org/2000/svg" width="2000.0px" height="1000.0px" viewBox="0 0 2000.0 1000.0" preserveAspectRatio="xMidYMid meet" style="background-color:transparent;border-color:#292724;border-style:none;border-width:1.0;fill:rgb(16.1%,15.3%,14.1%);fill-opacity:1.0;font-family:Helvetica;font-size:12px;opacity:1.0;stroke:rgb(16.1%,15.3%,14.1%);stroke-opacity:1.0;stroke-width:1.0" id="t694d30652a0c4d9bb457f9fc49e06d46"><g class="toyplot-coordinates-Cartesian" id="t3570d63e94464d2d930f3e0bb2cd7d6b"><clipPath id="t2cefb6a6ce4342be9662a7ebfe6b0269"><rect x="30.0" y="30.0" width="1940.0" height="940.0" /></clipPath><g clip-path="url(#t2cefb6a6ce4342be9662a7ebfe6b0269)"><g class="toytree-mark-Toytree" id="t0e9573ec344344f1989fa659a28c5772"><g class="toytree-Edges" style="fill:none;stroke:rgb(14.9%,14.9%,14.9%);stroke-linecap:round;stroke-opacity:1;stroke-width:2"><path d="M 77.4 131.1 L 77.4 198.6 L 557.7 198.6" id="43,42" /><path d="M 557.7 198.6 L 557.7 242.5 L 731.8 242.5" id="42,41" /><path d="M 731.8 242.5 L 731.8 291.7 L 807.6 291.7" id="41,40" /><path d="M 807.6 291.7 L 807.6 351.9 L 887.3 351.9" id="40,39" /><path d="M 887.3 351.9 L 887.3 434.0 L 1110.2 434.0" id="39,38" /><path d="M 1110.2 434.0 L 1110.2 337.0 L 1337.4 337.0" id="38,37" /><path d="M 1110.2 434.0 L 1110.2 531.0 L 1189.9 531.0" id="38,36" /><path d="M 1337.4 337.0 L 1337.4 365.8 L 1463.8 365.8" id="37,35" /><path d="M 1189.9 531.0 L 1189.9 442.5 L 1374.3 442.5" id="36,34" /><path d="M 1189.9 531.0 L 1189.9 619.6 L 1227.0 619.6" id="36,33" /><path d="M 1227.0 619.6 L 1227.0 533.6 L 1344.2 533.6" id="33,32" /><path d="M 1227.0 619.6 L 1227.0 705.5 L 1306.6 705.5" id="33,31" /><path d="M 1344.2 533.6 L 1344.2 567.1 L 1511.0 567.1" id="32,30" /><path d="M 1306.6 705.5 L 1306.6 757.7 L 1336.5 757.7" id="31,29" /><path d="M 1511.0 567.1 L 1511.0 595.9 L 1542.7 595.9" id="30,28" /><path d="M 1336.5 757.7 L 1336.5 710.9 L 1386.0 710.9" id="29,27" /><path d="M 1336.5 757.7 L 1336.5 804.4 L 1381.0 804.4" id="29,26" /><path d="M 1381.0 804.4 L 1381.0 840.4 L 1460.1 840.4" id="26,25" /><path d="M 1460.1 840.4 L 1460.1 873.9 L 1510.3 873.9" id="25,24" /><path d="M 1510.3 873.9 L 1510.3 902.7 L 1588.8 902.7" id="24,23" /><path d="M 77.4 131.1 L 77.4 78.1 L 1152.7 78.1" id="43,22" /><path d="M 77.4 131.1 L 77.4 116.5 L 1140.1 116.5" id="43,21" /><path d="M 557.7 198.6 L 557.7 154.8 L 1136.8 154.8" id="42,20" /><path d="M 731.8 242.5 L 731.8 193.2 L 1035.8 193.2" id="41,19" /><path d="M 807.6 291.7 L 807.6 231.5 L 1200.3 231.5" id="40,18" /><path d="M 887.3 351.9 L 887.3 269.9 L 1057.1 269.9" id="39,17" /><path d="M 1337.4 337.0 L 1337.4 308.2 L 1436.9 308.2" id="37,16" /><path d="M 1463.8 365.8 L 1463.8 346.6 L 1541.4 346.6" id="35,15" /><path d="M 1463.8 365.8 L 1463.8 384.9 L 1635.6 384.9" id="35,14" /><path d="M 1374.3 442.5 L 1374.3 423.3 L 1406.3 423.3" id="34,13" /><path d="M 1374.3 442.5 L 1374.3 461.6 L 1404.5 461.6" id="34,12" /><path d="M 1344.2 533.6 L 1344.2 500.0 L 1458.5 500.0" id="32,11" /><path d="M 1511.0 567.1 L 1511.0 538.4 L 1716.9 538.4" id="30,10" /><path d="M 1542.7 595.9 L 1542.7 576.7 L 1617.4 576.7" id="28,9" /><path d="M 1542.7 595.9 L 1542.7 615.1 L 1571.8 615.1" id="28,8" /><path d="M 1306.6 705.5 L 1306.6 653.4 L 1432.6 653.4" id="31,7" /><path d="M 1386.0 710.9 L 1386.0 691.8 L 1416.7 691.8" id="27,6" /><path d="M 1386.0 710.9 L 1386.0 730.1 L 1502.9 730.1" id="27,5" /><path d="M 1381.0 804.4 L 1381.0 768.5 L 1549.4 768.5" id="26,4" /><path d="M 1460.1 840.4 L 1460.1 806.8 L 1617.7 806.8" id="25,3" /><path d="M 1510.3 873.9 L 1510.3 845.2 L 1686.9 845.2" id="24,2" /><path d="M 1588.8 902.7 L 1588.8 883.5 L 1666.7 883.5" id="23,1" /><path d="M 1588.8 902.7 L 1588.8 921.9 L 1812.5 921.9" id="23,0" /></g><g class="toytree-Nodes" style="fill:rgb(40%,76.1%,64.7%);fill-opacity:1.0;stroke:None;stroke-width:1"><g id="node-0" transform="translate(1812.498,921.875)"><circle r="15.0" /></g><g id="node-1" transform="translate(1666.702,883.523)"><circle r="15.0" /></g><g id="node-2" transform="translate(1686.924,845.170)"><circle r="15.0" /></g><g id="node-3" transform="translate(1617.651,806.818)"><circle r="15.0" /></g><g id="node-4" transform="translate(1549.387,768.466)"><circle r="15.0" /></g><g id="node-5" transform="translate(1502.874,730.114)"><circle r="15.0" /></g><g id="node-6" transform="translate(1416.698,691.761)"><circle r="15.0" /></g><g id="node-7" transform="translate(1432.619,653.409)"><circle r="15.0" /></g><g id="node-8" transform="translate(1571.822,615.057)"><circle r="15.0" /></g><g id="node-9" transform="translate(1617.419,576.705)"><circle r="15.0" /></g><g id="node-10" transform="translate(1716.935,538.352)"><circle r="15.0" /></g><g id="node-11" transform="translate(1458.453,500.000)"><circle r="15.0" /></g><g id="node-12" transform="translate(1404.542,461.648)"><circle r="15.0" /></g><g id="node-13" transform="translate(1406.317,423.295)"><circle r="15.0" /></g><g id="node-14" transform="translate(1635.567,384.943)"><circle r="15.0" /></g><g id="node-15" transform="translate(1541.384,346.591)"><circle r="15.0" /></g><g id="node-16" transform="translate(1436.919,308.239)"><circle r="15.0" /></g><g id="node-17" transform="translate(1057.093,269.886)"><circle r="15.0" /></g><g id="node-18" transform="translate(1200.284,231.534)"><circle r="15.0" /></g><g id="node-19" transform="translate(1035.755,193.182)"><circle r="15.0" /></g><g id="node-20" transform="translate(1136.819,154.830)"><circle r="15.0" /></g><g id="node-21" transform="translate(1140.118,116.477)"><circle r="15.0" /></g><g id="node-22" transform="translate(1152.659,78.125)"><circle r="15.0" /></g><g id="node-23" transform="translate(1588.813,902.699)"><circle r="15.0" /></g><g id="node-24" transform="translate(1510.251,873.935)"><circle r="15.0" /></g><g id="node-25" transform="translate(1460.110,840.376)"><circle r="15.0" /></g><g id="node-26" transform="translate(1380.996,804.421)"><circle r="15.0" /></g><g id="node-27" transform="translate(1386.013,710.938)"><circle r="15.0" /></g><g id="node-28" transform="translate(1542.737,595.881)"><circle r="15.0" /></g><g id="node-29" transform="translate(1336.534,757.679)"><circle r="15.0" /></g><g id="node-30" transform="translate(1511.028,567.116)"><circle r="15.0" /></g><g id="node-31" transform="translate(1306.550,705.544)"><circle r="15.0" /></g><g id="node-32" transform="translate(1344.230,533.558)"><circle r="15.0" /></g><g id="node-33" transform="translate(1227.032,619.551)"><circle r="15.0" /></g><g id="node-34" transform="translate(1374.346,442.472)"><circle r="15.0" /></g><g id="node-35" transform="translate(1463.823,365.767)"><circle r="15.0" /></g><g id="node-36" transform="translate(1189.856,531.011)"><circle r="15.0" /></g><g id="node-37" transform="translate(1337.376,337.003)"><circle r="15.0" /></g><g id="node-38" transform="translate(1110.215,434.007)"><circle r="15.0" /></g><g id="node-39" transform="translate(887.284,351.947)"><circle r="15.0" /></g><g id="node-40" transform="translate(807.614,291.740)"><circle r="15.0" /></g><g id="node-41" transform="translate(731.765,242.461)"><circle r="15.0" /></g><g id="node-42" transform="translate(557.651,198.645)"><circle r="15.0" /></g><g id="node-43" transform="translate(77.396,131.083)"><circle r="15.0" /></g></g><g class="toytree-NodeLabels" style="fill:rgb(14.9%,14.9%,14.9%);fill-opacity:1.0;font-size:9px;stroke:none"><g transform="translate(1573.80,905.00)"><text>98/0.92</text></g><g transform="translate(1495.24,876.23)"><text>94/0.36</text></g><g transform="translate(1445.10,842.68)"><text>69/0.72</text></g><g transform="translate(1365.98,806.72)"><text>56/0.19</text></g><g transform="translate(1371.00,713.24)"><text>38/0.19</text></g><g transform="translate(1527.73,598.18)"><text>77/0.34</text></g><g transform="translate(1321.52,759.98)"><text>55/0.13</text></g><g transform="translate(1498.52,569.42)"><text>88/1.0</text></g><g transform="translate(1291.54,707.84)"><text>51/0.98</text></g><g transform="translate(1329.22,535.86)"><text>59/0.98</text></g><g transform="translate(1212.02,621.85)"><text>96/0.31</text></g><g transform="translate(1361.84,444.77)"><text>95/1.0</text></g><g transform="translate(1451.31,368.07)"><text>98/1.0</text></g><g transform="translate(1177.35,533.31)"><text>41/0.7</text></g><g transform="translate(1324.87,339.30)"><text>57/1.0</text></g><g transform="translate(1097.71,436.31)"><text>73/1.0</text></g><g transform="translate(872.27,354.25)"><text>99/0.86</text></g><g transform="translate(792.60,294.04)"><text>56/0.83</text></g><g transform="translate(719.26,244.76)"><text>78/1.0</text></g><g transform="translate(545.14,200.94)"><text>32/1.0</text></g></g><g class="toytree-TipLabels" style="fill:rgb(14.9%,14.9%,14.9%);fill-opacity:1.0;font-family:helvetica;font-size:11px;font-weight:normal;stroke:none;white-space:pre"><g transform="translate(1812.50,921.88)rotate(0)"><text x="15.00" y="2.81" style="fill:rgb(32.5%,51.8%,63.9%);fill-opacity:1.0">Pseudoisnayaur</text></g><g transform="translate(1666.70,883.52)rotate(0)"><text x="15.00" y="2.81" style="fill:rgb(28.6%,8.24%,43.9%);fill-opacity:1.0">Hemitragusjemlahicus</text></g><g transform="translate(1686.92,845.17)rotate(0)"><text x="15.00" y="2.81" style="fill:rgb(28.6%,8.24%,43.9%);fill-opacity:1.0">Hemitragusjayakari</text></g><g transform="translate(1617.65,806.82)rotate(0)"><text x="15.00" y="2.81" style="fill:rgb(32.5%,51.8%,63.9%);fill-opacity:1.0">Ammotraguslervia</text></g><g transform="translate(1549.39,768.47)rotate(0)"><text x="15.00" y="2.81" style="fill:rgb(83.9%,33.3%,48.6%);fill-opacity:1.0">Caprafalconeri</text></g><g transform="translate(1502.87,730.11)rotate(0)"><text x="15.00" y="2.81" style="fill:rgb(83.9%,33.3%,48.6%);fill-opacity:1.0">Caprasibirica</text></g><g transform="translate(1416.70,691.76)rotate(0)"><text x="15.00" y="2.81" style="fill:rgb(83.9%,33.3%,48.6%);fill-opacity:1.0">Capranubiana</text></g><g transform="translate(1432.62,653.41)rotate(0)"><text x="15.00" y="2.81" style="fill:rgb(83.9%,33.3%,48.6%);fill-opacity:1.0">Capraibex</text></g><g transform="translate(1571.82,615.06)rotate(0)"><text x="15.00" y="2.81" style="fill:rgb(22.4%,56.1%,7.84%);fill-opacity:1.0">Ovisaries</text></g><g transform="translate(1617.42,576.70)rotate(0)"><text x="15.00" y="2.81" style="fill:rgb(28.6%,8.24%,43.9%);fill-opacity:1.0">Hemitragushylocrius</text></g><g transform="translate(1716.94,538.35)rotate(0)"><text x="15.00" y="2.81" style="fill:rgb(22.4%,56.1%,7.84%);fill-opacity:1.0">Ovisdalli</text></g><g transform="translate(1458.45,500.00)rotate(0)"><text x="15.00" y="2.81" style="fill:rgb(32.5%,51.8%,63.9%);fill-opacity:1.0">Oreamnosamericanus</text></g><g transform="translate(1404.54,461.65)rotate(0)"><text x="15.00" y="2.81" style="fill:rgb(32.5%,51.8%,63.9%);fill-opacity:1.0">Rupicaprarupicapra</text></g><g transform="translate(1406.32,423.30)rotate(0)"><text x="15.00" y="2.81" style="fill:rgb(32.5%,51.8%,63.9%);fill-opacity:1.0">Rupicaprapyrenaica</text></g><g transform="translate(1635.57,384.94)rotate(0)"><text x="15.00" y="2.81" style="fill:rgb(32.5%,51.8%,63.9%);fill-opacity:1.0">Ovibosmoschatus</text></g><g transform="translate(1541.38,346.59)rotate(0)"><text x="15.00" y="2.81" style="fill:rgb(32.5%,51.8%,63.9%);fill-opacity:1.0">Capricornissumatrensis</text></g><g transform="translate(1436.92,308.24)rotate(0)"><text x="15.00" y="2.81" style="fill:rgb(32.5%,51.8%,63.9%);fill-opacity:1.0">Budorcastaxicolor</text></g><g transform="translate(1057.09,269.89)rotate(0)"><text x="15.00" y="2.81" style="fill:rgb(32.5%,51.8%,63.9%);fill-opacity:1.0">Damaliscuspygargus</text></g><g transform="translate(1200.28,231.53)rotate(0)"><text x="15.00" y="2.81" style="fill:rgb(32.5%,51.8%,63.9%);fill-opacity:1.0">Hippotragusniger</text></g><g transform="translate(1035.76,193.18)rotate(0)"><text x="15.00" y="2.81" style="fill:rgb(32.5%,51.8%,63.9%);fill-opacity:1.0">Pantholopshodgsonii</text></g><g transform="translate(1136.82,154.83)rotate(0)"><text x="15.00" y="2.81" style="fill:rgb(32.5%,51.8%,63.9%);fill-opacity:1.0">Aepycerosmelampus</text></g><g transform="translate(1140.12,116.48)rotate(0)"><text x="15.00" y="2.81" style="fill:rgb(58.8%,5.49%,5.49%);fill-opacity:1.0">Bosindicus</text></g><g transform="translate(1152.66,78.12)rotate(0)"><text x="15.00" y="2.81" style="fill:rgb(58.8%,5.49%,5.49%);fill-opacity:1.0">Muntiacusreevesi</text></g></g></g></g></g></svg>