<svg class="toyplot-canvas-Canvas" xmlns:toyplot="http://www.sandia.gov/toyplot" xmlns:xlink="http://www.w3.org/1999/xlink" xmlns="http://www.w3.org/2000/svg" width="2000.0px" height="1000.0px" viewBox="0 0 2000.0 1000.0" preserveAspectRatio="xMidYMid meet" style="background-color:transparent;border-color:#292724;border-style:none;border-width:1.0;fill:rgb(16.1%,15.3%,14.1%);fill-opacity:1.0;font-family:Helvetica;font-size:12px;opacity:1.0;stroke:rgb(16.1%,15.3%,14.1%);stroke-opacity:1.0;stroke-width:1.0" id="t67ec852ed5b94240987b37881fa25e2e"><g class="toyplot-coordinates-Cartesian" id="t30b509c9efa14bcc9d8c74309f227844"><clipPath id="tccceb1f17aab4f5386574b3ecab36cb2"><rect x="30.0" y="30.0" width="1940.0" height="940.0" /></clipPath><g clip-path="url(#tccceb1f17aab4f5386574b3ecab36cb2)"><g class="toytree-mark-Toytree" id="tff3607fe0cda4522abc2ef71e3717a90"><g class="toytree-Edges" style="fill:none;stroke:rgb(14.9%,14.9%,14.9%);stroke-linecap:round;stroke-opacity:1;stroke-width:2"><path d="M 77.6 144.0 L 77.6 235.7 L 441.3 235.7" id="41,40" /><path d="M 441.3 235.7 L 441.3 312.8 L 753.8 312.8" id="40,39" /><path d="M 753.8 312.8 L 753.8 218.8 L 928.2 218.8" id="39,38" /><path d="M 753.8 312.8 L 753.8 406.9 L 1017.1 406.9" id="39,37" /><path d="M 1017.1 406.9 L 1017.1 299.1 L 1392.8 299.1" id="37,36" /><path d="M 1017.1 406.9 L 1017.1 514.8 L 1091.9 514.8" id="37,35" /><path d="M 1091.9 514.8 L 1091.9 389.5 L 1311.6 389.5" id="35,34" /><path d="M 1091.9 514.8 L 1091.9 640.0 L 1150.1 640.0" id="35,33" /><path d="M 1311.6 389.5 L 1311.6 419.6 L 1349.9 419.6" id="34,32" /><path d="M 1150.1 640.0 L 1150.1 530.1 L 1215.7 530.1" id="33,31" /><path d="M 1150.1 640.0 L 1150.1 749.9 L 1262.0 749.9" id="33,30" /><path d="M 1215.7 530.1 L 1215.7 580.4 L 1262.4 580.4" id="31,29" /><path d="M 1262.0 749.9 L 1262.0 700.9 L 1342.2 700.9" id="30,28" /><path d="M 1262.0 749.9 L 1262.0 798.8 L 1414.7 798.8" id="30,27" /><path d="M 1262.4 580.4 L 1262.4 540.2 L 1377.5 540.2" id="29,26" /><path d="M 1262.4 580.4 L 1262.4 620.5 L 1352.6 620.5" id="29,25" /><path d="M 1414.7 798.8 L 1414.7 836.5 L 1481.3 836.5" id="27,24" /><path d="M 1481.3 836.5 L 1481.3 871.7 L 1582.1 871.7" id="24,23" /><path d="M 1582.1 871.7 L 1582.1 901.8 L 1604.5 901.8" id="23,22" /><path d="M 77.6 144.0 L 77.6 78.1 L 1560.3 78.1" id="41,21" /><path d="M 77.6 144.0 L 77.6 118.3 L 898.0 118.3" id="41,20" /><path d="M 441.3 235.7 L 441.3 158.5 L 1267.5 158.5" id="40,19" /><path d="M 928.2 218.8 L 928.2 198.7 L 1766.5 198.7" id="38,18" /><path d="M 928.2 218.8 L 928.2 238.8 L 1726.9 238.8" id="38,17" /><path d="M 1392.8 299.1 L 1392.8 279.0 L 1544.3 279.0" id="36,16" /><path d="M 1392.8 299.1 L 1392.8 319.2 L 1574.6 319.2" id="36,15" /><path d="M 1311.6 389.5 L 1311.6 359.4 L 1661.7 359.4" id="34,14" /><path d="M 1349.9 419.6 L 1349.9 399.6 L 1534.9 399.6" id="32,13" /><path d="M 1349.9 419.6 L 1349.9 439.7 L 1453.3 439.7" id="32,12" /><path d="M 1215.7 530.1 L 1215.7 479.9 L 1713.3 479.9" id="31,11" /><path d="M 1377.5 540.2 L 1377.5 520.1 L 1695.4 520.1" id="26,10" /><path d="M 1377.5 540.2 L 1377.5 560.3 L 1784.9 560.3" id="26,9" /><path d="M 1352.6 620.5 L 1352.6 600.4 L 1363.7 600.4" id="25,8" /><path d="M 1352.6 620.5 L 1352.6 640.6 L 1404.0 640.6" id="25,7" /><path d="M 1342.2 700.9 L 1342.2 680.8 L 1795.6 680.8" id="28,6" /><path d="M 1342.2 700.9 L 1342.2 721.0 L 1635.2 721.0" id="28,5" /><path d="M 1414.7 798.8 L 1414.7 761.2 L 1650.0 761.2" id="27,4" /><path d="M 1481.3 836.5 L 1481.3 801.3 L 1675.9 801.3" id="24,3" /><path d="M 1582.1 871.7 L 1582.1 841.5 L 1683.3 841.5" id="23,2" /><path d="M 1604.5 901.8 L 1604.5 881.7 L 1721.2 881.7" id="22,1" /><path d="M 1604.5 901.8 L 1604.5 921.9 L 1822.9 921.9" id="22,0" /></g><g class="toytree-Nodes" style="fill:rgb(40%,76.1%,64.7%);fill-opacity:1.0;stroke:None;stroke-width:1"><g id="node-0" transform="translate(1822.930,921.875)"><circle r="15.0" /></g><g id="node-1" transform="translate(1721.181,881.696)"><circle r="15.0" /></g><g id="node-2" transform="translate(1683.340,841.518)"><circle r="15.0" /></g><g id="node-3" transform="translate(1675.949,801.339)"><circle r="15.0" /></g><g id="node-4" transform="translate(1650.015,761.161)"><circle r="15.0" /></g><g id="node-5" transform="translate(1635.235,720.982)"><circle r="15.0" /></g><g id="node-6" transform="translate(1795.570,680.804)"><circle r="15.0" /></g><g id="node-7" transform="translate(1403.981,640.625)"><circle r="15.0" /></g><g id="node-8" transform="translate(1363.741,600.446)"><circle r="15.0" /></g><g id="node-9" transform="translate(1784.927,560.268)"><circle r="15.0" /></g><g id="node-10" transform="translate(1695.429,520.089)"><circle r="15.0" /></g><g id="node-11" transform="translate(1713.279,479.911)"><circle r="15.0" /></g><g id="node-12" transform="translate(1453.273,439.732)"><circle r="15.0" /></g><g id="node-13" transform="translate(1534.879,399.554)"><circle r="15.0" /></g><g id="node-14" transform="translate(1661.723,359.375)"><circle r="15.0" /></g><g id="node-15" transform="translate(1574.550,319.196)"><circle r="15.0" /></g><g id="node-16" transform="translate(1544.336,279.018)"><circle r="15.0" /></g><g id="node-17" transform="translate(1726.899,238.839)"><circle r="15.0" /></g><g id="node-18" transform="translate(1766.511,198.661)"><circle r="15.0" /></g><g id="node-19" transform="translate(1267.537,158.482)"><circle r="15.0" /></g><g id="node-20" transform="translate(898.034,118.304)"><circle r="15.0" /></g><g id="node-21" transform="translate(1560.252,78.125)"><circle r="15.0" /></g><g id="node-22" transform="translate(1604.506,901.786)"><circle r="15.0" /></g><g id="node-23" transform="translate(1582.085,871.652)"><circle r="15.0" /></g><g id="node-24" transform="translate(1481.291,836.496)"><circle r="15.0" /></g><g id="node-25" transform="translate(1352.617,620.536)"><circle r="15.0" /></g><g id="node-26" transform="translate(1377.481,540.179)"><circle r="15.0" /></g><g id="node-27" transform="translate(1414.677,798.828)"><circle r="15.0" /></g><g id="node-28" transform="translate(1342.169,700.893)"><circle r="15.0" /></g><g id="node-29" transform="translate(1262.356,580.357)"><circle r="15.0" /></g><g id="node-30" transform="translate(1262.012,749.860)"><circle r="15.0" /></g><g id="node-31" transform="translate(1215.676,530.134)"><circle r="15.0" /></g><g id="node-32" transform="translate(1349.864,419.643)"><circle r="15.0" /></g><g id="node-33" transform="translate(1150.095,639.997)"><circle r="15.0" /></g><g id="node-34" transform="translate(1311.607,389.509)"><circle r="15.0" /></g><g id="node-35" transform="translate(1091.935,514.753)"><circle r="15.0" /></g><g id="node-36" transform="translate(1392.789,299.107)"><circle r="15.0" /></g><g id="node-37" transform="translate(1017.098,406.930)"><circle r="15.0" /></g><g id="node-38" transform="translate(928.152,218.750)"><circle r="15.0" /></g><g id="node-39" transform="translate(753.763,312.840)"><circle r="15.0" /></g><g id="node-40" transform="translate(441.258,235.661)"><circle r="15.0" /></g><g id="node-41" transform="translate(77.558,144.030)"><circle r="15.0" /></g></g><g class="toytree-NodeLabels" style="fill:rgb(14.9%,14.9%,14.9%);fill-opacity:1.0;font-size:9px;stroke:none"><g transform="translate(1589.49,904.09)"><text>60/0.45</text></g><g transform="translate(1569.57,873.95)"><text>87/1.0</text></g><g transform="translate(1466.28,838.80)"><text>75/0.86</text></g><g transform="translate(1337.61,622.84)"><text>99/0.98</text></g><g transform="translate(1362.47,542.48)"><text>93/0.99</text></g><g transform="translate(1402.17,801.13)"><text>48/1.0</text></g><g transform="translate(1327.16,703.19)"><text>24/0.69</text></g><g transform="translate(1247.34,582.66)"><text>81/0.59</text></g><g transform="translate(1247.00,752.16)"><text>57/0.97</text></g><g transform="translate(1200.66,532.43)"><text>48/0.84</text></g><g transform="translate(1334.85,421.94)"><text>69/0.48</text></g><g transform="translate(1135.08,642.30)"><text>37/0.65</text></g><g transform="translate(1299.10,391.81)"><text>95/1.0</text></g><g transform="translate(1076.92,517.05)"><text>49/0.89</text></g><g transform="translate(1377.78,301.41)"><text>100/1.0</text></g><g transform="translate(1004.59,409.23)"><text>90/1.0</text></g><g transform="translate(915.64,221.05)"><text>49/0.7</text></g><g transform="translate(741.25,315.14)"><text>91/1.0</text></g><g transform="translate(428.75,237.96)"><text>95/1.0</text></g></g><g class="toytree-TipLabels" style="fill:rgb(14.9%,14.9%,14.9%);fill-opacity:1.0;font-family:helvetica;font-size:11px;font-weight:normal;stroke:none;white-space:pre"><g transform="translate(1822.93,921.88)rotate(0)"><text x="15.00" y="2.81" style="fill:rgb(83.9%,33.3%,48.6%);fill-opacity:1.0">Capranubiana</text></g><g transform="translate(1721.18,881.70)rotate(0)"><text x="15.00" y="2.81" style="fill:rgb(83.9%,33.3%,48.6%);fill-opacity:1.0">Capraibex</text></g><g transform="translate(1683.34,841.52)rotate(0)"><text x="15.00" y="2.81" style="fill:rgb(83.9%,33.3%,48.6%);fill-opacity:1.0">Caprafalconeri</text></g><g transform="translate(1675.95,801.34)rotate(0)"><text x="15.00" y="2.81" style="fill:rgb(83.9%,33.3%,48.6%);fill-opacity:1.0">Caprasibirica</text></g><g transform="translate(1650.01,761.16)rotate(0)"><text x="15.00" y="2.81" style="fill:rgb(28.6%,8.24%,43.9%);fill-opacity:1.0">Hemitragusjemlahicus</text></g><g transform="translate(1635.24,720.98)rotate(0)"><text x="15.00" y="2.81" style="fill:rgb(32.5%,51.8%,63.9%);fill-opacity:1.0">Pseudoisnayaur</text></g><g transform="translate(1795.57,680.80)rotate(0)"><text x="15.00" y="2.81" style="fill:rgb(32.5%,51.8%,63.9%);fill-opacity:1.0">Budorcastaxicolor</text></g><g transform="translate(1403.98,640.62)rotate(0)"><text x="15.00" y="2.81" style="fill:rgb(32.5%,51.8%,63.9%);fill-opacity:1.0">Ovibosmoschatus</text></g><g transform="translate(1363.74,600.45)rotate(0)"><text x="15.00" y="2.81" style="fill:rgb(32.5%,51.8%,63.9%);fill-opacity:1.0">Capricorniscrispus</text></g><g transform="translate(1784.93,560.27)rotate(0)"><text x="15.00" y="2.81" style="fill:rgb(28.6%,8.24%,43.9%);fill-opacity:1.0">Hemitragusjayakari</text></g><g transform="translate(1695.43,520.09)rotate(0)"><text x="15.00" y="2.81" style="fill:rgb(32.5%,51.8%,63.9%);fill-opacity:1.0">Ammotraguslervia</text></g><g transform="translate(1713.28,479.91)rotate(0)"><text x="15.00" y="2.81" style="fill:rgb(32.5%,51.8%,63.9%);fill-opacity:1.0">Oreamnosamericanus</text></g><g transform="translate(1453.27,439.73)rotate(0)"><text x="15.00" y="2.81" style="fill:rgb(22.4%,56.1%,7.84%);fill-opacity:1.0">Ovisdalli</text></g><g transform="translate(1534.88,399.55)rotate(0)"><text x="15.00" y="2.81" style="fill:rgb(22.4%,56.1%,7.84%);fill-opacity:1.0">Ovisaries</text></g><g transform="translate(1661.72,359.38)rotate(0)"><text x="15.00" y="2.81" style="fill:rgb(28.6%,8.24%,43.9%);fill-opacity:1.0">Hemitragushylocrius</text></g><g transform="translate(1574.55,319.20)rotate(0)"><text x="15.00" y="2.81" style="fill:rgb(58.8%,5.49%,5.49%);fill-opacity:1.0">Rupicaprarupicapra</text></g><g transform="translate(1544.34,279.02)rotate(0)"><text x="15.00" y="2.81" style="fill:rgb(58.8%,5.49%,5.49%);fill-opacity:1.0">Rupicaprapyrenaica</text></g><g transform="translate(1726.90,238.84)rotate(0)"><text x="15.00" y="2.81" style="fill:rgb(32.5%,51.8%,63.9%);fill-opacity:1.0">Hippotragusniger</text></g><g transform="translate(1766.51,198.66)rotate(0)"><text x="15.00" y="2.81" style="fill:rgb(32.5%,51.8%,63.9%);fill-opacity:1.0">Damaliscuspygargus</text></g><g transform="translate(1267.54,158.48)rotate(0)"><text x="15.00" y="2.81" style="fill:rgb(32.5%,51.8%,63.9%);fill-opacity:1.0">Aepycerosmelampus</text></g><g transform="translate(898.03,118.30)rotate(0)"><text x="15.00" y="2.81" style="fill:rgb(32.5%,51.8%,63.9%);fill-opacity:1.0">Bosindicus</text></g><g transform="translate(1560.25,78.13)rotate(0)"><text x="15.00" y="2.81" style="fill:rgb(32.5%,51.8%,63.9%);fill-opacity:1.0">Muntiacusreevesi</text></g></g></g></g></g></svg>