<svg class="toyplot-canvas-Canvas" xmlns:toyplot="http://www.sandia.gov/toyplot" xmlns:xlink="http://www.w3.org/1999/xlink" xmlns="http://www.w3.org/2000/svg" width="2000.0px" height="1000.0px" viewBox="0 0 2000.0 1000.0" preserveAspectRatio="xMidYMid meet" style="background-color:transparent;border-color:#292724;border-style:none;border-width:1.0;fill:rgb(16.1%,15.3%,14.1%);fill-opacity:1.0;font-family:Helvetica;font-size:12px;opacity:1.0;stroke:rgb(16.1%,15.3%,14.1%);stroke-opacity:1.0;stroke-width:1.0" id="t65888a614e4343c9baef18da6a6a9ce6"><g class="toyplot-coordinates-Cartesian" id="t1c3c60cd39dc4800952f356307a538d2"><clipPath id="tf8ebc220a2f04298bb9caf887983af56"><rect x="30.0" y="30.0" width="1940.0" height="940.0" /></clipPath><g clip-path="url(#tf8ebc220a2f04298bb9caf887983af56)"><g class="toytree-mark-Toytree" id="tc4e96ccc3f6c4718ba0471cf321dd1be"><g class="toytree-Edges" style="fill:none;stroke:rgb(14.9%,14.9%,14.9%);stroke-linecap:round;stroke-opacity:1;stroke-width:2"><path d="M 76.9 129.9 L 76.9 195.1 L 278.2 195.1" id="43,42" /><path d="M 278.2 195.1 L 278.2 235.4 L 437.1 235.4" id="42,41" /><path d="M 437.1 235.4 L 437.1 277.6 L 517.7 277.6" id="41,40" /><path d="M 517.7 277.6 L 517.7 323.7 L 735.8 323.7" id="40,39" /><path d="M 735.8 323.7 L 735.8 377.6 L 902.2 377.6" id="39,38" /><path d="M 902.2 377.6 L 902.2 447.0 L 948.3 447.0" id="38,37" /><path d="M 948.3 447.0 L 948.3 365.8 L 1255.6 365.8" id="37,36" /><path d="M 948.3 447.0 L 948.3 528.2 L 1048.8 528.2" id="37,35" /><path d="M 1048.8 528.2 L 1048.8 633.0 L 1128.7 633.0" id="35,34" /><path d="M 1128.7 633.0 L 1128.7 509.6 L 1232.5 509.6" id="34,33" /><path d="M 1128.7 633.0 L 1128.7 756.5 L 1196.5 756.5" id="34,32" /><path d="M 1232.5 509.6 L 1232.5 557.5 L 1283.1 557.5" id="33,31" /><path d="M 1196.5 756.5 L 1196.5 682.2 L 1397.4 682.2" id="32,30" /><path d="M 1196.5 756.5 L 1196.5 830.8 L 1282.5 830.8" id="32,29" /><path d="M 1283.1 557.5 L 1283.1 519.2 L 1299.8 519.2" id="31,28" /><path d="M 1283.1 557.5 L 1283.1 595.9 L 1314.4 595.9" id="31,27" /><path d="M 1397.4 682.2 L 1397.4 710.9 L 1508.7 710.9" id="30,26" /><path d="M 1282.5 830.8 L 1282.5 787.6 L 1704.8 787.6" id="29,25" /><path d="M 1282.5 830.8 L 1282.5 873.9 L 1331.4 873.9" id="29,24" /><path d="M 1331.4 873.9 L 1331.4 902.7 L 1448.2 902.7" id="24,23" /><path d="M 76.9 129.9 L 76.9 78.1 L 959.8 78.1" id="43,22" /><path d="M 76.9 129.9 L 76.9 116.5 L 583.9 116.5" id="43,21" /><path d="M 278.2 195.1 L 278.2 154.8 L 854.2 154.8" id="42,20" /><path d="M 437.1 235.4 L 437.1 193.2 L 892.9 193.2" id="41,19" /><path d="M 517.7 277.6 L 517.7 231.5 L 1215.5 231.5" id="40,18" /><path d="M 735.8 323.7 L 735.8 269.9 L 1028.3 269.9" id="39,17" /><path d="M 902.2 377.6 L 902.2 308.2 L 1225.5 308.2" id="38,16" /><path d="M 1255.6 365.8 L 1255.6 346.6 L 1535.2 346.6" id="36,15" /><path d="M 1255.6 365.8 L 1255.6 384.9 L 1365.6 384.9" id="36,14" /><path d="M 1048.8 528.2 L 1048.8 423.3 L 1382.0 423.3" id="35,13" /><path d="M 1232.5 509.6 L 1232.5 461.6 L 1333.9 461.6" id="33,12" /><path d="M 1299.8 519.2 L 1299.8 500.0 L 1337.8 500.0" id="28,11" /><path d="M 1299.8 519.2 L 1299.8 538.4 L 1356.8 538.4" id="28,10" /><path d="M 1314.4 595.9 L 1314.4 576.7 L 1347.3 576.7" id="27,9" /><path d="M 1314.4 595.9 L 1314.4 615.1 L 1539.0 615.1" id="27,8" /><path d="M 1397.4 682.2 L 1397.4 653.4 L 1493.9 653.4" id="30,7" /><path d="M 1508.7 710.9 L 1508.7 691.8 L 1572.7 691.8" id="26,6" /><path d="M 1508.7 710.9 L 1508.7 730.1 L 1592.9 730.1" id="26,5" /><path d="M 1704.8 787.6 L 1704.8 768.5 L 1782.4 768.5" id="25,4" /><path d="M 1704.8 787.6 L 1704.8 806.8 L 1745.7 806.8" id="25,3" /><path d="M 1331.4 873.9 L 1331.4 845.2 L 1476.9 845.2" id="24,2" /><path d="M 1448.2 902.7 L 1448.2 883.5 L 1627.9 883.5" id="23,1" /><path d="M 1448.2 902.7 L 1448.2 921.9 L 1576.3 921.9" id="23,0" /></g><g class="toytree-Nodes" style="fill:rgb(40%,76.1%,64.7%);fill-opacity:1.0;stroke:None;stroke-width:1"><g id="node-0" transform="translate(1576.270,921.875)"><circle r="15.0" /></g><g id="node-1" transform="translate(1627.853,883.523)"><circle r="15.0" /></g><g id="node-2" transform="translate(1476.906,845.170)"><circle r="15.0" /></g><g id="node-3" transform="translate(1745.666,806.818)"><circle r="15.0" /></g><g id="node-4" transform="translate(1782.387,768.466)"><circle r="15.0" /></g><g id="node-5" transform="translate(1592.856,730.114)"><circle r="15.0" /></g><g id="node-6" transform="translate(1572.732,691.761)"><circle r="15.0" /></g><g id="node-7" transform="translate(1493.879,653.409)"><circle r="15.0" /></g><g id="node-8" transform="translate(1539.009,615.057)"><circle r="15.0" /></g><g id="node-9" transform="translate(1347.253,576.705)"><circle r="15.0" /></g><g id="node-10" transform="translate(1356.812,538.352)"><circle r="15.0" /></g><g id="node-11" transform="translate(1337.815,500.000)"><circle r="15.0" /></g><g id="node-12" transform="translate(1333.907,461.648)"><circle r="15.0" /></g><g id="node-13" transform="translate(1382.045,423.295)"><circle r="15.0" /></g><g id="node-14" transform="translate(1365.645,384.943)"><circle r="15.0" /></g><g id="node-15" transform="translate(1535.168,346.591)"><circle r="15.0" /></g><g id="node-16" transform="translate(1225.503,308.239)"><circle r="15.0" /></g><g id="node-17" transform="translate(1028.323,269.886)"><circle r="15.0" /></g><g id="node-18" transform="translate(1215.547,231.534)"><circle r="15.0" /></g><g id="node-19" transform="translate(892.904,193.182)"><circle r="15.0" /></g><g id="node-20" transform="translate(854.195,154.830)"><circle r="15.0" /></g><g id="node-21" transform="translate(583.898,116.477)"><circle r="15.0" /></g><g id="node-22" transform="translate(959.789,78.125)"><circle r="15.0" /></g><g id="node-23" transform="translate(1448.196,902.699)"><circle r="15.0" /></g><g id="node-24" transform="translate(1331.397,873.935)"><circle r="15.0" /></g><g id="node-25" transform="translate(1704.796,787.642)"><circle r="15.0" /></g><g id="node-26" transform="translate(1508.689,710.938)"><circle r="15.0" /></g><g id="node-27" transform="translate(1314.385,595.881)"><circle r="15.0" /></g><g id="node-28" transform="translate(1299.845,519.176)"><circle r="15.0" /></g><g id="node-29" transform="translate(1282.513,830.788)"><circle r="15.0" /></g><g id="node-30" transform="translate(1397.378,682.173)"><circle r="15.0" /></g><g id="node-31" transform="translate(1283.115,557.528)"><circle r="15.0" /></g><g id="node-32" transform="translate(1196.487,756.481)"><circle r="15.0" /></g><g id="node-33" transform="translate(1232.520,509.588)"><circle r="15.0" /></g><g id="node-34" transform="translate(1128.693,633.034)"><circle r="15.0" /></g><g id="node-35" transform="translate(1048.823,528.165)"><circle r="15.0" /></g><g id="node-36" transform="translate(1255.648,365.767)"><circle r="15.0" /></g><g id="node-37" transform="translate(948.338,446.966)"><circle r="15.0" /></g><g id="node-38" transform="translate(902.237,377.602)"><circle r="15.0" /></g><g id="node-39" transform="translate(735.831,323.744)"><circle r="15.0" /></g><g id="node-40" transform="translate(517.651,277.639)"><circle r="15.0" /></g><g id="node-41" transform="translate(437.095,235.411)"><circle r="15.0" /></g><g id="node-42" transform="translate(278.154,195.120)"><circle r="15.0" /></g><g id="node-43" transform="translate(76.928,129.907)"><circle r="15.0" /></g></g><g class="toytree-NodeLabels" style="fill:rgb(14.9%,14.9%,14.9%);fill-opacity:1.0;font-size:9px;stroke:none"><g transform="translate(1435.69,905.00)"><text>49/1.0</text></g><g transform="translate(1316.39,876.23)"><text>45/0.46</text></g><g transform="translate(1692.29,789.94)"><text>63/1.0</text></g><g transform="translate(1496.18,713.24)"><text>70/1.0</text></g><g transform="translate(1296.87,598.18)"><text>100/0.65</text></g><g transform="translate(1284.83,521.48)"><text>83/0.54</text></g><g transform="translate(1267.50,833.09)"><text>20/0.79</text></g><g transform="translate(1384.87,684.47)"><text>18/1.0</text></g><g transform="translate(1268.10,559.83)"><text>29/0.64</text></g><g transform="translate(1181.48,758.78)"><text>88/0.58</text></g><g transform="translate(1217.51,511.89)"><text>12/0.86</text></g><g transform="translate(1116.18,635.33)"><text>82/0.6</text></g><g transform="translate(1033.81,530.46)"><text>20/0.89</text></g><g transform="translate(1243.14,368.07)"><text>14/1.0</text></g><g transform="translate(933.33,449.27)"><text>100/0.4</text></g><g transform="translate(887.23,379.90)"><text>45/0.88</text></g><g transform="translate(723.32,326.04)"><text>63/1.0</text></g><g transform="translate(502.64,279.94)"><text>45/0.46</text></g><g transform="translate(422.08,237.71)"><text>31/0.94</text></g><g transform="translate(263.14,197.42)"><text>59/0.89</text></g></g><g class="toytree-TipLabels" style="fill:rgb(14.9%,14.9%,14.9%);fill-opacity:1.0;font-family:helvetica;font-size:11px;font-weight:normal;stroke:none;white-space:pre"><g transform="translate(1576.27,921.88)rotate(0)"><text x="15.00" y="2.81" style="fill:rgb(28.6%,8.24%,43.9%);fill-opacity:1.0">Hemitragusjayakari</text></g><g transform="translate(1627.85,883.52)rotate(0)"><text x="15.00" y="2.81" style="fill:rgb(32.5%,51.8%,63.9%);fill-opacity:1.0">Ammotraguslervia</text></g><g transform="translate(1476.91,845.17)rotate(0)"><text x="15.00" y="2.81" style="fill:rgb(32.5%,51.8%,63.9%);fill-opacity:1.0">Budorcastaxicolor</text></g><g transform="translate(1745.67,806.82)rotate(0)"><text x="15.00" y="2.81" style="fill:rgb(58.8%,5.49%,5.49%);fill-opacity:1.0">Rupicaprarupicapra</text></g><g transform="translate(1782.39,768.47)rotate(0)"><text x="15.00" y="2.81" style="fill:rgb(58.8%,5.49%,5.49%);fill-opacity:1.0">Rupicaprapyrenaica</text></g><g transform="translate(1592.86,730.11)rotate(0)"><text x="15.00" y="2.81" style="fill:rgb(22.4%,56.1%,7.84%);fill-opacity:1.0">Ovisdalli</text></g><g transform="translate(1572.73,691.76)rotate(0)"><text x="15.00" y="2.81" style="fill:rgb(22.4%,56.1%,7.84%);fill-opacity:1.0">Ovisaries</text></g><g transform="translate(1493.88,653.41)rotate(0)"><text x="15.00" y="2.81" style="fill:rgb(28.6%,8.24%,43.9%);fill-opacity:1.0">Hemitragushylocrius</text></g><g transform="translate(1539.01,615.06)rotate(0)"><text x="15.00" y="2.81" style="fill:rgb(28.6%,8.24%,43.9%);fill-opacity:1.0">Hemitragusjemlahicus</text></g><g transform="translate(1347.25,576.70)rotate(0)"><text x="15.00" y="2.81" style="fill:rgb(83.9%,33.3%,48.6%);fill-opacity:1.0">Capranubiana</text></g><g transform="translate(1356.81,538.35)rotate(0)"><text x="15.00" y="2.81" style="fill:rgb(83.9%,33.3%,48.6%);fill-opacity:1.0">Capraibex</text></g><g transform="translate(1337.82,500.00)rotate(0)"><text x="15.00" y="2.81" style="fill:rgb(83.9%,33.3%,48.6%);fill-opacity:1.0">Caprafalconeri</text></g><g transform="translate(1333.91,461.65)rotate(0)"><text x="15.00" y="2.81" style="fill:rgb(83.9%,33.3%,48.6%);fill-opacity:1.0">Caprasibirica</text></g><g transform="translate(1382.04,423.30)rotate(0)"><text x="15.00" y="2.81" style="fill:rgb(32.5%,51.8%,63.9%);fill-opacity:1.0">Pseudoisnayaur</text></g><g transform="translate(1365.64,384.94)rotate(0)"><text x="15.00" y="2.81" style="fill:rgb(32.5%,51.8%,63.9%);fill-opacity:1.0">Ovibosmoschatus</text></g><g transform="translate(1535.17,346.59)rotate(0)"><text x="15.00" y="2.81" style="fill:rgb(32.5%,51.8%,63.9%);fill-opacity:1.0">Capricornissumatrensis</text></g><g transform="translate(1225.50,308.24)rotate(0)"><text x="15.00" y="2.81" style="fill:rgb(32.5%,51.8%,63.9%);fill-opacity:1.0">Oreamnosamericanus</text></g><g transform="translate(1028.32,269.89)rotate(0)"><text x="15.00" y="2.81" style="fill:rgb(32.5%,51.8%,63.9%);fill-opacity:1.0">Pantholopshodgsonii</text></g><g transform="translate(1215.55,231.53)rotate(0)"><text x="15.00" y="2.81" style="fill:rgb(32.5%,51.8%,63.9%);fill-opacity:1.0">Damaliscuspygargus</text></g><g transform="translate(892.90,193.18)rotate(0)"><text x="15.00" y="2.81" style="fill:rgb(32.5%,51.8%,63.9%);fill-opacity:1.0">Hippotragusniger</text></g><g transform="translate(854.20,154.83)rotate(0)"><text x="15.00" y="2.81" style="fill:rgb(32.5%,51.8%,63.9%);fill-opacity:1.0">Aepycerosmelampus</text></g><g transform="translate(583.90,116.48)rotate(0)"><text x="15.00" y="2.81" style="fill:rgb(32.5%,51.8%,63.9%);fill-opacity:1.0">Bosindicus</text></g><g transform="translate(959.79,78.12)rotate(0)"><text x="15.00" y="2.81" style="fill:rgb(32.5%,51.8%,63.9%);fill-opacity:1.0">Muntiacusreevesi</text></g></g></g></g></g></svg>