<svg class="toyplot-canvas-Canvas" xmlns:toyplot="http://www.sandia.gov/toyplot" xmlns:xlink="http://www.w3.org/1999/xlink" xmlns="http://www.w3.org/2000/svg" width="2000.0px" height="1000.0px" viewBox="0 0 2000.0 1000.0" preserveAspectRatio="xMidYMid meet" style="background-color:transparent;border-color:#292724;border-style:none;border-width:1.0;fill:rgb(16.1%,15.3%,14.1%);fill-opacity:1.0;font-family:Helvetica;font-size:12px;opacity:1.0;stroke:rgb(16.1%,15.3%,14.1%);stroke-opacity:1.0;stroke-width:1.0" id="t4f5491c435f7490a949c3dadffe2fc94"><g class="toyplot-coordinates-Cartesian" id="t5c79a6d9795349f59800e521f244cbc5"><clipPath id="t0bc5c70354254f7091db59665d635571"><rect x="30.0" y="30.0" width="1940.0" height="940.0" /></clipPath><g clip-path="url(#t0bc5c70354254f7091db59665d635571)"><g class="toytree-mark-Toytree" id="t952e2c5bee804e519ecaf651dedbfb8a"><g class="toytree-Edges" style="fill:none;stroke:rgb(14.9%,14.9%,14.9%);stroke-linecap:round;stroke-opacity:1;stroke-width:2"><path d="M 76.9 145.3 L 76.9 241.3 L 424.1 241.3" id="43,42" /><path d="M 424.1 241.3 L 424.1 327.8 L 559.6 327.8" id="42,41" /><path d="M 559.6 327.8 L 559.6 212.4 L 686.6 212.4" id="41,40" /><path d="M 559.6 327.8 L 559.6 443.2 L 800.4 443.2" id="41,39" /><path d="M 800.4 443.2 L 800.4 327.4 L 843.7 327.4" id="39,38" /><path d="M 800.4 443.2 L 800.4 559.0 L 842.0 559.0" id="39,37" /><path d="M 843.7 327.4 L 843.7 289.1 L 1257.7 289.1" id="38,36" /><path d="M 843.7 327.4 L 843.7 365.8 L 967.6 365.8" id="38,35" /><path d="M 842.0 559.0 L 842.0 452.1 L 1126.7 452.1" id="37,34" /><path d="M 842.0 559.0 L 842.0 666.0 L 880.5 666.0" id="37,33" /><path d="M 1126.7 452.1 L 1126.7 480.8 L 1308.9 480.8" id="34,32" /><path d="M 880.5 666.0 L 880.5 595.9 L 924.1 595.9" id="33,31" /><path d="M 880.5 666.0 L 880.5 736.1 L 925.2 736.1" id="33,30" /><path d="M 924.1 595.9 L 924.1 557.5 L 958.7 557.5" id="31,29" /><path d="M 924.1 595.9 L 924.1 634.2 L 1248.2 634.2" id="31,28" /><path d="M 925.2 736.1 L 925.2 780.5 L 1016.2 780.5" id="30,27" /><path d="M 1016.2 780.5 L 1016.2 830.8 L 1145.6 830.8" id="27,26" /><path d="M 1145.6 830.8 L 1145.6 787.6 L 1191.7 787.6" id="26,25" /><path d="M 1145.6 830.8 L 1145.6 873.9 L 1275.4 873.9" id="26,24" /><path d="M 1275.4 873.9 L 1275.4 902.7 L 1318.7 902.7" id="24,23" /><path d="M 76.9 145.3 L 76.9 78.1 L 1318.2 78.1" id="43,22" /><path d="M 76.9 145.3 L 76.9 116.5 L 1268.5 116.5" id="43,21" /><path d="M 424.1 241.3 L 424.1 154.8 L 1473.0 154.8" id="42,20" /><path d="M 686.6 212.4 L 686.6 193.2 L 1427.2 193.2" id="40,19" /><path d="M 686.6 212.4 L 686.6 231.5 L 1435.6 231.5" id="40,18" /><path d="M 1257.7 289.1 L 1257.7 269.9 L 1413.4 269.9" id="36,17" /><path d="M 1257.7 289.1 L 1257.7 308.2 L 1482.2 308.2" id="36,16" /><path d="M 967.6 365.8 L 967.6 346.6 L 1480.7 346.6" id="35,15" /><path d="M 967.6 365.8 L 967.6 384.9 L 1764.7 384.9" id="35,14" /><path d="M 1126.7 452.1 L 1126.7 423.3 L 1258.9 423.3" id="34,13" /><path d="M 1308.9 480.8 L 1308.9 461.6 L 1643.9 461.6" id="32,12" /><path d="M 1308.9 480.8 L 1308.9 500.0 L 1491.6 500.0" id="32,11" /><path d="M 958.7 557.5 L 958.7 538.4 L 1432.5 538.4" id="29,10" /><path d="M 958.7 557.5 L 958.7 576.7 L 1197.7 576.7" id="29,9" /><path d="M 1248.2 634.2 L 1248.2 615.1 L 1443.3 615.1" id="28,8" /><path d="M 1248.2 634.2 L 1248.2 653.4 L 1759.0 653.4" id="28,7" /><path d="M 925.2 736.1 L 925.2 691.8 L 1781.1 691.8" id="30,6" /><path d="M 1016.2 780.5 L 1016.2 730.1 L 1478.9 730.1" id="27,5" /><path d="M 1191.7 787.6 L 1191.7 768.5 L 1464.1 768.5" id="25,4" /><path d="M 1191.7 787.6 L 1191.7 806.8 L 1566.6 806.8" id="25,3" /><path d="M 1275.4 873.9 L 1275.4 845.2 L 1476.6 845.2" id="24,2" /><path d="M 1318.7 902.7 L 1318.7 883.5 L 1474.3 883.5" id="23,1" /><path d="M 1318.7 902.7 L 1318.7 921.9 L 1492.4 921.9" id="23,0" /></g><g class="toytree-Nodes" style="fill:rgb(40%,76.1%,64.7%);fill-opacity:1.0;stroke:None;stroke-width:1"><g id="node-0" transform="translate(1492.430,921.875)"><circle r="15.0" /></g><g id="node-1" transform="translate(1474.310,883.523)"><circle r="15.0" /></g><g id="node-2" transform="translate(1476.596,845.170)"><circle r="15.0" /></g><g id="node-3" transform="translate(1566.612,806.818)"><circle r="15.0" /></g><g id="node-4" transform="translate(1464.064,768.466)"><circle r="15.0" /></g><g id="node-5" transform="translate(1478.878,730.114)"><circle r="15.0" /></g><g id="node-6" transform="translate(1781.079,691.761)"><circle r="15.0" /></g><g id="node-7" transform="translate(1759.037,653.409)"><circle r="15.0" /></g><g id="node-8" transform="translate(1443.263,615.057)"><circle r="15.0" /></g><g id="node-9" transform="translate(1197.693,576.705)"><circle r="15.0" /></g><g id="node-10" transform="translate(1432.458,538.352)"><circle r="15.0" /></g><g id="node-11" transform="translate(1491.575,500.000)"><circle r="15.0" /></g><g id="node-12" transform="translate(1643.947,461.648)"><circle r="15.0" /></g><g id="node-13" transform="translate(1258.938,423.295)"><circle r="15.0" /></g><g id="node-14" transform="translate(1764.733,384.943)"><circle r="15.0" /></g><g id="node-15" transform="translate(1480.724,346.591)"><circle r="15.0" /></g><g id="node-16" transform="translate(1482.230,308.239)"><circle r="15.0" /></g><g id="node-17" transform="translate(1413.416,269.886)"><circle r="15.0" /></g><g id="node-18" transform="translate(1435.639,231.534)"><circle r="15.0" /></g><g id="node-19" transform="translate(1427.173,193.182)"><circle r="15.0" /></g><g id="node-20" transform="translate(1473.017,154.830)"><circle r="15.0" /></g><g id="node-21" transform="translate(1268.539,116.477)"><circle r="15.0" /></g><g id="node-22" transform="translate(1318.205,78.125)"><circle r="15.0" /></g><g id="node-23" transform="translate(1318.732,902.699)"><circle r="15.0" /></g><g id="node-24" transform="translate(1275.351,873.935)"><circle r="15.0" /></g><g id="node-25" transform="translate(1191.657,787.642)"><circle r="15.0" /></g><g id="node-26" transform="translate(1145.625,830.788)"><circle r="15.0" /></g><g id="node-27" transform="translate(1016.152,780.451)"><circle r="15.0" /></g><g id="node-28" transform="translate(1248.224,634.233)"><circle r="15.0" /></g><g id="node-29" transform="translate(958.654,557.528)"><circle r="15.0" /></g><g id="node-30" transform="translate(925.185,736.106)"><circle r="15.0" /></g><g id="node-31" transform="translate(924.115,595.881)"><circle r="15.0" /></g><g id="node-32" transform="translate(1308.941,480.824)"><circle r="15.0" /></g><g id="node-33" transform="translate(880.508,665.993)"><circle r="15.0" /></g><g id="node-34" transform="translate(1126.739,452.060)"><circle r="15.0" /></g><g id="node-35" transform="translate(967.616,365.767)"><circle r="15.0" /></g><g id="node-36" transform="translate(1257.739,289.062)"><circle r="15.0" /></g><g id="node-37" transform="translate(842.030,559.027)"><circle r="15.0" /></g><g id="node-38" transform="translate(843.682,327.415)"><circle r="15.0" /></g><g id="node-39" transform="translate(800.431,443.221)"><circle r="15.0" /></g><g id="node-40" transform="translate(686.575,212.358)"><circle r="15.0" /></g><g id="node-41" transform="translate(559.635,327.789)"><circle r="15.0" /></g><g id="node-42" transform="translate(424.051,241.309)"><circle r="15.0" /></g><g id="node-43" transform="translate(76.908,145.304)"><circle r="15.0" /></g></g><g class="toytree-NodeLabels" style="fill:rgb(14.9%,14.9%,14.9%);fill-opacity:1.0;font-size:9px;stroke:none"><g transform="translate(1306.22,905.00)"><text>64/0.8</text></g><g transform="translate(1262.84,876.23)"><text>98/1.0</text></g><g transform="translate(1176.65,789.94)"><text>49/0.72</text></g><g transform="translate(1130.61,833.09)"><text>100/1.0</text></g><g transform="translate(1001.14,782.75)"><text>97/0.96</text></g><g transform="translate(1235.71,636.53)"><text>97/1.0</text></g><g transform="translate(943.64,559.83)"><text>99/0.26</text></g><g transform="translate(910.17,738.41)"><text>27/0.33</text></g><g transform="translate(909.10,598.18)"><text>38/0.14</text></g><g transform="translate(1296.43,483.12)"><text>16/1.0</text></g><g transform="translate(865.50,668.29)"><text>68/0.12</text></g><g transform="translate(1111.73,454.36)"><text>100/1.0</text></g><g transform="translate(952.60,368.07)"><text>16/0.57</text></g><g transform="translate(1247.73,291.36)"><text>8/1.0</text></g><g transform="translate(827.02,561.33)"><text>12/0.16</text></g><g transform="translate(831.17,329.71)"><text>15/0.2</text></g><g transform="translate(787.92,445.52)"><text>68/1.0</text></g><g transform="translate(671.56,214.66)"><text>52/0.95</text></g><g transform="translate(544.62,330.09)"><text>38/0.96</text></g><g transform="translate(411.54,243.61)"><text>74/1.0</text></g></g><g class="toytree-TipLabels" style="fill:rgb(14.9%,14.9%,14.9%);fill-opacity:1.0;font-family:helvetica;font-size:11px;font-weight:normal;stroke:none;white-space:pre"><g transform="translate(1492.43,921.88)rotate(0)"><text x="15.00" y="2.81" style="fill:rgb(83.9%,33.3%,48.6%);fill-opacity:1.0">Capranubiana</text></g><g transform="translate(1474.31,883.52)rotate(0)"><text x="15.00" y="2.81" style="fill:rgb(83.9%,33.3%,48.6%);fill-opacity:1.0">Caprafalconeri</text></g><g transform="translate(1476.60,845.17)rotate(0)"><text x="15.00" y="2.81" style="fill:rgb(83.9%,33.3%,48.6%);fill-opacity:1.0">Capraibex</text></g><g transform="translate(1566.61,806.82)rotate(0)"><text x="15.00" y="2.81" style="fill:rgb(83.9%,33.3%,48.6%);fill-opacity:1.0">Caprasibirica</text></g><g transform="translate(1464.06,768.47)rotate(0)"><text x="15.00" y="2.81" style="fill:rgb(28.6%,8.24%,43.9%);fill-opacity:1.0">Hemitragusjemlahicus</text></g><g transform="translate(1478.88,730.11)rotate(0)"><text x="15.00" y="2.81" style="fill:rgb(32.5%,51.8%,63.9%);fill-opacity:1.0">Pseudoisnayaur</text></g><g transform="translate(1781.08,691.76)rotate(0)"><text x="15.00" y="2.81" style="fill:rgb(32.5%,51.8%,63.9%);fill-opacity:1.0">Budorcastaxicolor</text></g><g transform="translate(1759.04,653.41)rotate(0)"><text x="15.00" y="2.81" style="fill:rgb(32.5%,51.8%,63.9%);fill-opacity:1.0">Ovibosmoschatus</text></g><g transform="translate(1443.26,615.06)rotate(0)"><text x="15.00" y="2.81" style="fill:rgb(32.5%,51.8%,63.9%);fill-opacity:1.0">Capricornissumatrensis</text></g><g transform="translate(1197.69,576.70)rotate(0)"><text x="15.00" y="2.81" style="fill:rgb(28.6%,8.24%,43.9%);fill-opacity:1.0">Hemitragusjayakari</text></g><g transform="translate(1432.46,538.35)rotate(0)"><text x="15.00" y="2.81" style="fill:rgb(32.5%,51.8%,63.9%);fill-opacity:1.0">Ammotraguslervia</text></g><g transform="translate(1491.57,500.00)rotate(0)"><text x="15.00" y="2.81" style="fill:rgb(22.4%,56.1%,7.84%);fill-opacity:1.0">Ovisdalli</text></g><g transform="translate(1643.95,461.65)rotate(0)"><text x="15.00" y="2.81" style="fill:rgb(22.4%,56.1%,7.84%);fill-opacity:1.0">Ovisaries</text></g><g transform="translate(1258.94,423.30)rotate(0)"><text x="15.00" y="2.81" style="fill:rgb(28.6%,8.24%,43.9%);fill-opacity:1.0">Hemitragushylocrius</text></g><g transform="translate(1764.73,384.94)rotate(0)"><text x="15.00" y="2.81" style="fill:rgb(32.5%,51.8%,63.9%);fill-opacity:1.0">Oreamnosamericanus</text></g><g transform="translate(1480.72,346.59)rotate(0)"><text x="15.00" y="2.81" style="fill:rgb(32.5%,51.8%,63.9%);fill-opacity:1.0">Pantholopshodgsoni</text></g><g transform="translate(1482.23,308.24)rotate(0)"><text x="15.00" y="2.81" style="fill:rgb(58.8%,5.49%,5.49%);fill-opacity:1.0">Rupicaprarupicapra</text></g><g transform="translate(1413.42,269.89)rotate(0)"><text x="15.00" y="2.81" style="fill:rgb(58.8%,5.49%,5.49%);fill-opacity:1.0">Rupicaprapyrenaica</text></g><g transform="translate(1435.64,231.53)rotate(0)"><text x="15.00" y="2.81" style="fill:rgb(32.5%,51.8%,63.9%);fill-opacity:1.0">Hippotragusniger</text></g><g transform="translate(1427.17,193.18)rotate(0)"><text x="15.00" y="2.81" style="fill:rgb(32.5%,51.8%,63.9%);fill-opacity:1.0">Damaliscuspygargus</text></g><g transform="translate(1473.02,154.83)rotate(0)"><text x="15.00" y="2.81" style="fill:rgb(32.5%,51.8%,63.9%);fill-opacity:1.0">Aepycerosmelampus</text></g><g transform="translate(1268.54,116.48)rotate(0)"><text x="15.00" y="2.81" style="fill:rgb(32.5%,51.8%,63.9%);fill-opacity:1.0">Bosindicus</text></g><g transform="translate(1318.21,78.12)rotate(0)"><text x="15.00" y="2.81" style="fill:rgb(32.5%,51.8%,63.9%);fill-opacity:1.0">Muntiacusreevesi</text></g></g></g></g></g></svg>