<svg class="toyplot-canvas-Canvas" xmlns:toyplot="http://www.sandia.gov/toyplot" xmlns:xlink="http://www.w3.org/1999/xlink" xmlns="http://www.w3.org/2000/svg" width="2000.0px" height="1000.0px" viewBox="0 0 2000.0 1000.0" preserveAspectRatio="xMidYMid meet" style="background-color:transparent;border-color:#292724;border-style:none;border-width:1.0;fill:rgb(16.1%,15.3%,14.1%);fill-opacity:1.0;font-family:Helvetica;font-size:12px;opacity:1.0;stroke:rgb(16.1%,15.3%,14.1%);stroke-opacity:1.0;stroke-width:1.0" id="tabd66fee0aab493e807af939e7ecd8c3"><g class="toyplot-coordinates-Cartesian" id="t322e5d3212b54286b3cdbcd2a33168d6"><clipPath id="t1c7e330f1f704714a9061c3dad6452bc"><rect x="30.0" y="30.0" width="1940.0" height="940.0" /></clipPath><g clip-path="url(#t1c7e330f1f704714a9061c3dad6452bc)"><g class="toytree-mark-Toytree" id="t02ce2df7a1c14ed497af9c24cb642bbd"><g class="toytree-Edges" style="fill:none;stroke:rgb(14.9%,14.9%,14.9%);stroke-linecap:round;stroke-opacity:1;stroke-width:2"><path d="M 77.2 171.1 L 77.2 318.7 L 382.7 318.7" id="43,42" /><path d="M 382.7 318.7 L 382.7 183.6 L 422.5 183.6" id="42,41" /><path d="M 382.7 318.7 L 382.7 453.9 L 438.8 453.9" id="42,40" /><path d="M 422.5 183.6 L 422.5 212.4 L 440.3 212.4" id="41,39" /><path d="M 438.8 453.9 L 438.8 303.4 L 454.0 303.4" id="40,38" /><path d="M 438.8 453.9 L 438.8 604.3 L 479.3 604.3" id="40,37" /><path d="M 454.0 303.4 L 454.0 337.0 L 474.7 337.0" id="38,36" /><path d="M 479.3 604.3 L 479.3 480.8 L 558.9 480.8" id="37,35" /><path d="M 479.3 604.3 L 479.3 727.7 L 499.0 727.7" id="37,34" /><path d="M 474.7 337.0 L 474.7 365.8 L 541.0 365.8" id="36,33" /><path d="M 558.9 480.8 L 558.9 442.5 L 575.4 442.5" id="35,32" /><path d="M 558.9 480.8 L 558.9 519.2 L 596.2 519.2" id="35,31" /><path d="M 499.0 727.7 L 499.0 624.6 L 536.9 624.6" id="34,30" /><path d="M 499.0 727.7 L 499.0 830.8 L 580.5 830.8" id="34,29" /><path d="M 536.9 624.6 L 536.9 672.6 L 567.9 672.6" id="30,28" /><path d="M 580.5 830.8 L 580.5 787.6 L 742.0 787.6" id="29,27" /><path d="M 580.5 830.8 L 580.5 873.9 L 661.9 873.9" id="29,26" /><path d="M 567.9 672.6 L 567.9 634.2 L 594.5 634.2" id="28,25" /><path d="M 567.9 672.6 L 567.9 710.9 L 583.8 710.9" id="28,24" /><path d="M 661.9 873.9 L 661.9 902.7 L 722.3 902.7" id="26,23" /><path d="M 77.2 171.1 L 77.2 78.1 L 1801.7 78.1" id="43,22" /><path d="M 77.2 171.1 L 77.2 116.5 L 472.1 116.5" id="43,21" /><path d="M 422.5 183.6 L 422.5 154.8 L 918.0 154.8" id="41,20" /><path d="M 440.3 212.4 L 440.3 193.2 L 610.7 193.2" id="39,19" /><path d="M 440.3 212.4 L 440.3 231.5 L 920.0 231.5" id="39,18" /><path d="M 454.0 303.4 L 454.0 269.9 L 789.1 269.9" id="38,17" /><path d="M 474.7 337.0 L 474.7 308.2 L 622.6 308.2" id="36,16" /><path d="M 541.0 365.8 L 541.0 346.6 L 812.1 346.6" id="33,15" /><path d="M 541.0 365.8 L 541.0 384.9 L 743.5 384.9" id="33,14" /><path d="M 575.4 442.5 L 575.4 423.3 L 778.4 423.3" id="32,13" /><path d="M 575.4 442.5 L 575.4 461.6 L 635.0 461.6" id="32,12" /><path d="M 596.2 519.2 L 596.2 500.0 L 704.0 500.0" id="31,11" /><path d="M 596.2 519.2 L 596.2 538.4 L 683.8 538.4" id="31,10" /><path d="M 536.9 624.6 L 536.9 576.7 L 862.1 576.7" id="30,9" /><path d="M 594.5 634.2 L 594.5 615.1 L 654.0 615.1" id="25,8" /><path d="M 594.5 634.2 L 594.5 653.4 L 629.1 653.4" id="25,7" /><path d="M 583.8 710.9 L 583.8 691.8 L 599.9 691.8" id="24,6" /><path d="M 583.8 710.9 L 583.8 730.1 L 738.2 730.1" id="24,5" /><path d="M 742.0 787.6 L 742.0 768.5 L 767.9 768.5" id="27,4" /><path d="M 742.0 787.6 L 742.0 806.8 L 801.6 806.8" id="27,3" /><path d="M 661.9 873.9 L 661.9 845.2 L 856.7 845.2" id="26,2" /><path d="M 722.3 902.7 L 722.3 883.5 L 737.6 883.5" id="23,1" /><path d="M 722.3 902.7 L 722.3 921.9 L 830.7 921.9" id="23,0" /></g><g class="toytree-Nodes" style="fill:rgb(40%,76.1%,64.7%);fill-opacity:1.0;stroke:None;stroke-width:1"><g id="node-0" transform="translate(830.740,921.875)"><circle r="15.0" /></g><g id="node-1" transform="translate(737.646,883.523)"><circle r="15.0" /></g><g id="node-2" transform="translate(856.710,845.170)"><circle r="15.0" /></g><g id="node-3" transform="translate(801.589,806.818)"><circle r="15.0" /></g><g id="node-4" transform="translate(767.911,768.466)"><circle r="15.0" /></g><g id="node-5" transform="translate(738.162,730.114)"><circle r="15.0" /></g><g id="node-6" transform="translate(599.933,691.761)"><circle r="15.0" /></g><g id="node-7" transform="translate(629.069,653.409)"><circle r="15.0" /></g><g id="node-8" transform="translate(654.014,615.057)"><circle r="15.0" /></g><g id="node-9" transform="translate(862.063,576.705)"><circle r="15.0" /></g><g id="node-10" transform="translate(683.783,538.352)"><circle r="15.0" /></g><g id="node-11" transform="translate(704.041,500.000)"><circle r="15.0" /></g><g id="node-12" transform="translate(635.005,461.648)"><circle r="15.0" /></g><g id="node-13" transform="translate(778.399,423.295)"><circle r="15.0" /></g><g id="node-14" transform="translate(743.548,384.943)"><circle r="15.0" /></g><g id="node-15" transform="translate(812.055,346.591)"><circle r="15.0" /></g><g id="node-16" transform="translate(622.593,308.239)"><circle r="15.0" /></g><g id="node-17" transform="translate(789.097,269.886)"><circle r="15.0" /></g><g id="node-18" transform="translate(919.951,231.534)"><circle r="15.0" /></g><g id="node-19" transform="translate(610.685,193.182)"><circle r="15.0" /></g><g id="node-20" transform="translate(918.031,154.830)"><circle r="15.0" /></g><g id="node-21" transform="translate(472.054,116.477)"><circle r="15.0" /></g><g id="node-22" transform="translate(1801.713,78.125)"><circle r="15.0" /></g><g id="node-23" transform="translate(722.324,902.699)"><circle r="15.0" /></g><g id="node-24" transform="translate(583.840,710.938)"><circle r="15.0" /></g><g id="node-25" transform="translate(594.491,634.233)"><circle r="15.0" /></g><g id="node-26" transform="translate(661.900,873.935)"><circle r="15.0" /></g><g id="node-27" transform="translate(741.965,787.642)"><circle r="15.0" /></g><g id="node-28" transform="translate(567.941,672.585)"><circle r="15.0" /></g><g id="node-29" transform="translate(580.466,830.788)"><circle r="15.0" /></g><g id="node-30" transform="translate(536.902,624.645)"><circle r="15.0" /></g><g id="node-31" transform="translate(596.169,519.176)"><circle r="15.0" /></g><g id="node-32" transform="translate(575.442,442.472)"><circle r="15.0" /></g><g id="node-33" transform="translate(541.033,365.767)"><circle r="15.0" /></g><g id="node-34" transform="translate(498.972,727.717)"><circle r="15.0" /></g><g id="node-35" transform="translate(558.941,480.824)"><circle r="15.0" /></g><g id="node-36" transform="translate(474.711,337.003)"><circle r="15.0" /></g><g id="node-37" transform="translate(479.260,604.270)"><circle r="15.0" /></g><g id="node-38" transform="translate(453.977,303.445)"><circle r="15.0" /></g><g id="node-39" transform="translate(440.339,212.358)"><circle r="15.0" /></g><g id="node-40" transform="translate(438.788,453.857)"><circle r="15.0" /></g><g id="node-41" transform="translate(422.454,183.594)"><circle r="15.0" /></g><g id="node-42" transform="translate(382.724,318.726)"><circle r="15.0" /></g><g id="node-43" transform="translate(77.229,171.109)"><circle r="15.0" /></g></g><g class="toytree-NodeLabels" style="fill:rgb(14.9%,14.9%,14.9%);fill-opacity:1.0;font-size:9px;stroke:none"><g transform="translate(709.81,905.00)"><text>81/1.0</text></g><g transform="translate(568.83,713.24)"><text>16/0.17</text></g><g transform="translate(579.48,636.53)"><text>46/0.25</text></g><g transform="translate(646.89,876.23)"><text>13/0.71</text></g><g transform="translate(729.46,789.94)"><text>53/1.0</text></g><g transform="translate(555.43,674.88)"><text>4/0.32</text></g><g transform="translate(565.45,833.09)"><text>21/0.39</text></g><g transform="translate(524.39,626.94)"><text>63/0.4</text></g><g transform="translate(581.16,521.48)"><text>24/0.87</text></g><g transform="translate(562.93,444.77)"><text>95/0.3</text></g><g transform="translate(528.52,368.07)"><text>8/0.94</text></g><g transform="translate(483.96,730.02)"><text>73/0.17</text></g><g transform="translate(546.43,483.12)"><text>19/0.9</text></g><g transform="translate(459.70,339.30)"><text>86/0.24</text></g><g transform="translate(466.75,606.57)"><text>7/0.35</text></g><g transform="translate(438.97,305.74)"><text>38/0.19</text></g><g transform="translate(430.33,214.66)"><text>5/0.2</text></g><g transform="translate(423.78,456.16)"><text>20/0.44</text></g><g transform="translate(409.94,185.89)"><text>7/0.21</text></g><g transform="translate(370.21,321.03)"><text>19/1.0</text></g></g><g class="toytree-TipLabels" style="fill:rgb(14.9%,14.9%,14.9%);fill-opacity:1.0;font-family:helvetica;font-size:11px;font-weight:normal;stroke:none;white-space:pre"><g transform="translate(830.74,921.88)rotate(0)"><text x="15.00" y="2.81" style="fill:rgb(32.5%,51.8%,63.9%);fill-opacity:1.0">Ovisdalli</text></g><g transform="translate(737.65,883.52)rotate(0)"><text x="15.00" y="2.81" style="fill:rgb(32.5%,51.8%,63.9%);fill-opacity:1.0">Ovisaries</text></g><g transform="translate(856.71,845.17)rotate(0)"><text x="15.00" y="2.81" style="fill:rgb(32.5%,51.8%,63.9%);fill-opacity:1.0">Hemitragushylocrius</text></g><g transform="translate(801.59,806.82)rotate(0)"><text x="15.00" y="2.81" style="fill:rgb(32.5%,51.8%,63.9%);fill-opacity:1.0">Rupicaprarupicapra</text></g><g transform="translate(767.91,768.47)rotate(0)"><text x="15.00" y="2.81" style="fill:rgb(32.5%,51.8%,63.9%);fill-opacity:1.0">Rupicaprapyrenaica</text></g><g transform="translate(738.16,730.11)rotate(0)"><text x="15.00" y="2.81" style="fill:rgb(32.5%,51.8%,63.9%);fill-opacity:1.0">Capranubiana</text></g><g transform="translate(599.93,691.76)rotate(0)"><text x="15.00" y="2.81" style="fill:rgb(32.5%,51.8%,63.9%);fill-opacity:1.0">Caprasibirica</text></g><g transform="translate(629.07,653.41)rotate(0)"><text x="15.00" y="2.81" style="fill:rgb(32.5%,51.8%,63.9%);fill-opacity:1.0">Capraibex</text></g><g transform="translate(654.01,615.06)rotate(0)"><text x="15.00" y="2.81" style="fill:rgb(32.5%,51.8%,63.9%);fill-opacity:1.0">Caprafalconeri</text></g><g transform="translate(862.06,576.70)rotate(0)"><text x="15.00" y="2.81" style="fill:rgb(32.5%,51.8%,63.9%);fill-opacity:1.0">Oreamnosamericanus</text></g><g transform="translate(683.78,538.35)rotate(0)"><text x="15.00" y="2.81" style="fill:rgb(28.6%,8.24%,43.9%);fill-opacity:1.0">Pseudoisnayaur</text></g><g transform="translate(704.04,500.00)rotate(0)"><text x="15.00" y="2.81" style="fill:rgb(28.6%,8.24%,43.9%);fill-opacity:1.0">Hemitragusjemlahicus</text></g><g transform="translate(635.00,461.65)rotate(0)"><text x="15.00" y="2.81" style="fill:rgb(32.5%,51.8%,63.9%);fill-opacity:1.0">Hemitragusjayakari</text></g><g transform="translate(778.40,423.30)rotate(0)"><text x="15.00" y="2.81" style="fill:rgb(22.4%,56.1%,7.84%);fill-opacity:1.0">Ammotraguslervia</text></g><g transform="translate(743.55,384.94)rotate(0)"><text x="15.00" y="2.81" style="fill:rgb(22.4%,56.1%,7.84%);fill-opacity:1.0">Ovibosmoschatus</text></g><g transform="translate(812.06,346.59)rotate(0)"><text x="15.00" y="2.81" style="fill:rgb(28.6%,8.24%,43.9%);fill-opacity:1.0">Capricornissumatrensis</text></g><g transform="translate(622.59,308.24)rotate(0)"><text x="15.00" y="2.81" style="fill:rgb(58.8%,5.49%,5.49%);fill-opacity:1.0">Budorcastaxicolor</text></g><g transform="translate(789.10,269.89)rotate(0)"><text x="15.00" y="2.81" style="fill:rgb(58.8%,5.49%,5.49%);fill-opacity:1.0">Pantholopshodgsonii</text></g><g transform="translate(919.95,231.53)rotate(0)"><text x="15.00" y="2.81" style="fill:rgb(32.5%,51.8%,63.9%);fill-opacity:1.0">Hippotragusniger</text></g><g transform="translate(610.68,193.18)rotate(0)"><text x="15.00" y="2.81" style="fill:rgb(83.9%,33.3%,48.6%);fill-opacity:1.0">Damaliscuslunatus</text></g><g transform="translate(918.03,154.83)rotate(0)"><text x="15.00" y="2.81" style="fill:rgb(83.9%,33.3%,48.6%);fill-opacity:1.0">Aepycerosmelampus</text></g><g transform="translate(472.05,116.48)rotate(0)"><text x="15.00" y="2.81" style="fill:rgb(83.9%,33.3%,48.6%);fill-opacity:1.0">Bosindicus</text></g><g transform="translate(1801.71,78.12)rotate(0)"><text x="15.00" y="2.81" style="fill:rgb(83.9%,33.3%,48.6%);fill-opacity:1.0">Muntiacusreevesi</text></g></g></g></g></g></svg>