<svg class="toyplot-canvas-Canvas" xmlns:toyplot="http://www.sandia.gov/toyplot" xmlns:xlink="http://www.w3.org/1999/xlink" xmlns="http://www.w3.org/2000/svg" width="2000.0px" height="1000.0px" viewBox="0 0 2000.0 1000.0" preserveAspectRatio="xMidYMid meet" style="background-color:transparent;border-color:#292724;border-style:none;border-width:1.0;fill:rgb(16.1%,15.3%,14.1%);fill-opacity:1.0;font-family:Helvetica;font-size:12px;opacity:1.0;stroke:rgb(16.1%,15.3%,14.1%);stroke-opacity:1.0;stroke-width:1.0" id="t803b02e26ab44902baeef8b449bd7f62"><g class="toyplot-coordinates-Cartesian" id="tea33329bd4f745aab37db63f48d4e952"><clipPath id="t7a141b1d1847463f822d097e1578581c"><rect x="30.0" y="30.0" width="1940.0" height="940.0" /></clipPath><g clip-path="url(#t7a141b1d1847463f822d097e1578581c)"><g class="toytree-mark-Toytree" id="t8767c951ec824ae88f3dc9af6c684ae9"><g class="toytree-Edges" style="fill:none;stroke:rgb(14.9%,14.9%,14.9%);stroke-linecap:round;stroke-opacity:1;stroke-width:2"><path d="M 76.8 144.3 L 76.8 238.3 L 292.3 238.3" id="43,42" /><path d="M 292.3 238.3 L 292.3 321.7 L 481.7 321.7" id="42,41" /><path d="M 481.7 321.7 L 481.7 221.9 L 670.3 221.9" id="41,40" /><path d="M 481.7 321.7 L 481.7 421.4 L 681.5 421.4" id="41,39" /><path d="M 670.3 221.9 L 670.3 250.7 L 766.7 250.7" id="40,38" /><path d="M 681.5 421.4 L 681.5 534.6 L 753.0 534.6" id="39,37" /><path d="M 753.0 534.6 L 753.0 411.3 L 784.3 411.3" id="37,36" /><path d="M 753.0 534.6 L 753.0 657.9 L 798.8 657.9" id="37,35" /><path d="M 784.3 411.3 L 784.3 365.8 L 1008.4 365.8" id="36,34" /><path d="M 784.3 411.3 L 784.3 456.9 L 856.0 456.9" id="36,33" /><path d="M 798.8 657.9 L 798.8 595.9 L 1371.2 595.9" id="35,32" /><path d="M 798.8 657.9 L 798.8 719.9 L 860.6 719.9" id="35,31" /><path d="M 856.0 456.9 L 856.0 490.4 L 1277.0 490.4" id="33,30" /><path d="M 860.6 719.9 L 860.6 672.6 L 962.1 672.6" id="31,29" /><path d="M 860.6 719.9 L 860.6 767.3 L 934.3 767.3" id="31,28" /><path d="M 1277.0 490.4 L 1277.0 519.2 L 1399.9 519.2" id="30,27" /><path d="M 934.3 767.3 L 934.3 804.4 L 1033.7 804.4" id="28,26" /><path d="M 1033.7 804.4 L 1033.7 840.4 L 1115.2 840.4" id="26,25" /><path d="M 1115.2 840.4 L 1115.2 873.9 L 1227.2 873.9" id="25,24" /><path d="M 1227.2 873.9 L 1227.2 902.7 L 1253.3 902.7" id="24,23" /><path d="M 76.8 144.3 L 76.8 78.1 L 1303.3 78.1" id="43,22" /><path d="M 76.8 144.3 L 76.8 116.5 L 1315.1 116.5" id="43,21" /><path d="M 292.3 238.3 L 292.3 154.8 L 811.8 154.8" id="42,20" /><path d="M 670.3 221.9 L 670.3 193.2 L 1537.0 193.2" id="40,19" /><path d="M 766.7 250.7 L 766.7 231.5 L 1371.6 231.5" id="38,18" /><path d="M 766.7 250.7 L 766.7 269.9 L 1774.8 269.9" id="38,17" /><path d="M 681.5 421.4 L 681.5 308.2 L 1358.4 308.2" id="39,16" /><path d="M 1008.4 365.8 L 1008.4 346.6 L 1357.8 346.6" id="34,15" /><path d="M 1008.4 365.8 L 1008.4 384.9 L 1246.0 384.9" id="34,14" /><path d="M 856.0 456.9 L 856.0 423.3 L 1207.6 423.3" id="33,13" /><path d="M 1277.0 490.4 L 1277.0 461.6 L 1579.8 461.6" id="30,12" /><path d="M 1399.9 519.2 L 1399.9 500.0 L 1639.7 500.0" id="27,11" /><path d="M 1399.9 519.2 L 1399.9 538.4 L 1518.1 538.4" id="27,10" /><path d="M 1371.2 595.9 L 1371.2 576.7 L 1543.9 576.7" id="32,9" /><path d="M 1371.2 595.9 L 1371.2 615.1 L 1454.0 615.1" id="32,8" /><path d="M 962.1 672.6 L 962.1 653.4 L 1239.8 653.4" id="29,7" /><path d="M 962.1 672.6 L 962.1 691.8 L 1210.2 691.8" id="29,6" /><path d="M 934.3 767.3 L 934.3 730.1 L 1384.3 730.1" id="28,5" /><path d="M 1033.7 804.4 L 1033.7 768.5 L 1168.8 768.5" id="26,4" /><path d="M 1115.2 840.4 L 1115.2 806.8 L 1325.8 806.8" id="25,3" /><path d="M 1227.2 873.9 L 1227.2 845.2 L 1348.0 845.2" id="24,2" /><path d="M 1253.3 902.7 L 1253.3 883.5 L 1380.2 883.5" id="23,1" /><path d="M 1253.3 902.7 L 1253.3 921.9 L 1354.6 921.9" id="23,0" /></g><g class="toytree-Nodes" style="fill:rgb(40%,76.1%,64.7%);fill-opacity:1.0;stroke:None;stroke-width:1"><g id="node-0" transform="translate(1354.633,921.875)"><circle r="15.0" /></g><g id="node-1" transform="translate(1380.248,883.523)"><circle r="15.0" /></g><g id="node-2" transform="translate(1347.999,845.170)"><circle r="15.0" /></g><g id="node-3" transform="translate(1325.817,806.818)"><circle r="15.0" /></g><g id="node-4" transform="translate(1168.809,768.466)"><circle r="15.0" /></g><g id="node-5" transform="translate(1384.274,730.114)"><circle r="15.0" /></g><g id="node-6" transform="translate(1210.168,691.761)"><circle r="15.0" /></g><g id="node-7" transform="translate(1239.780,653.409)"><circle r="15.0" /></g><g id="node-8" transform="translate(1454.002,615.057)"><circle r="15.0" /></g><g id="node-9" transform="translate(1543.932,576.705)"><circle r="15.0" /></g><g id="node-10" transform="translate(1518.137,538.352)"><circle r="15.0" /></g><g id="node-11" transform="translate(1639.719,500.000)"><circle r="15.0" /></g><g id="node-12" transform="translate(1579.803,461.648)"><circle r="15.0" /></g><g id="node-13" transform="translate(1207.647,423.295)"><circle r="15.0" /></g><g id="node-14" transform="translate(1246.030,384.943)"><circle r="15.0" /></g><g id="node-15" transform="translate(1357.766,346.591)"><circle r="15.0" /></g><g id="node-16" transform="translate(1358.428,308.239)"><circle r="15.0" /></g><g id="node-17" transform="translate(1774.790,269.886)"><circle r="15.0" /></g><g id="node-18" transform="translate(1371.593,231.534)"><circle r="15.0" /></g><g id="node-19" transform="translate(1536.996,193.182)"><circle r="15.0" /></g><g id="node-20" transform="translate(811.773,154.830)"><circle r="15.0" /></g><g id="node-21" transform="translate(1315.137,116.477)"><circle r="15.0" /></g><g id="node-22" transform="translate(1303.284,78.125)"><circle r="15.0" /></g><g id="node-23" transform="translate(1253.261,902.699)"><circle r="15.0" /></g><g id="node-24" transform="translate(1227.190,873.935)"><circle r="15.0" /></g><g id="node-25" transform="translate(1115.165,840.376)"><circle r="15.0" /></g><g id="node-26" transform="translate(1033.697,804.421)"><circle r="15.0" /></g><g id="node-27" transform="translate(1399.870,519.176)"><circle r="15.0" /></g><g id="node-28" transform="translate(934.300,767.267)"><circle r="15.0" /></g><g id="node-29" transform="translate(962.113,672.585)"><circle r="15.0" /></g><g id="node-30" transform="translate(1276.993,490.412)"><circle r="15.0" /></g><g id="node-31" transform="translate(860.551,719.926)"><circle r="15.0" /></g><g id="node-32" transform="translate(1371.161,595.881)"><circle r="15.0" /></g><g id="node-33" transform="translate(855.995,456.854)"><circle r="15.0" /></g><g id="node-34" transform="translate(1008.382,365.767)"><circle r="15.0" /></g><g id="node-35" transform="translate(798.786,657.903)"><circle r="15.0" /></g><g id="node-36" transform="translate(784.323,411.310)"><circle r="15.0" /></g><g id="node-37" transform="translate(753.032,534.607)"><circle r="15.0" /></g><g id="node-38" transform="translate(766.734,250.710)"><circle r="15.0" /></g><g id="node-39" transform="translate(681.490,421.423)"><circle r="15.0" /></g><g id="node-40" transform="translate(670.303,221.946)"><circle r="15.0" /></g><g id="node-41" transform="translate(481.688,321.684)"><circle r="15.0" /></g><g id="node-42" transform="translate(292.281,238.257)"><circle r="15.0" /></g><g id="node-43" transform="translate(76.810,144.286)"><circle r="15.0" /></g></g><g class="toytree-NodeLabels" style="fill:rgb(14.9%,14.9%,14.9%);fill-opacity:1.0;font-size:9px;stroke:none"><g transform="translate(1238.25,905.00)"><text>50/0.53</text></g><g transform="translate(1214.68,876.23)"><text>92/1.0</text></g><g transform="translate(1102.66,842.68)"><text>66/0.9</text></g><g transform="translate(1018.68,806.72)"><text>58/0.95</text></g><g transform="translate(1384.86,521.48)"><text>60/0.87</text></g><g transform="translate(919.29,769.57)"><text>26/0.58</text></g><g transform="translate(947.10,674.88)"><text>45/0.88</text></g><g transform="translate(1264.48,492.71)"><text>99/1.0</text></g><g transform="translate(845.54,722.23)"><text>38/0.41</text></g><g transform="translate(1358.65,598.18)"><text>23/1.0</text></g><g transform="translate(840.98,459.15)"><text>37/0.38</text></g><g transform="translate(993.37,368.07)"><text>100/1.0</text></g><g transform="translate(783.77,660.20)"><text>97/0.22</text></g><g transform="translate(769.31,413.61)"><text>57/0.12</text></g><g transform="translate(740.52,536.91)"><text>43/0.3</text></g><g transform="translate(751.72,253.01)"><text>15/0.55</text></g><g transform="translate(666.48,423.72)"><text>14/0.98</text></g><g transform="translate(655.29,224.25)"><text>28/0.98</text></g><g transform="translate(466.68,323.98)"><text>25/0.78</text></g><g transform="translate(277.27,240.56)"><text>65/0.91</text></g></g><g class="toytree-TipLabels" style="fill:rgb(14.9%,14.9%,14.9%);fill-opacity:1.0;font-family:helvetica;font-size:11px;font-weight:normal;stroke:none;white-space:pre"><g transform="translate(1354.63,921.88)rotate(0)"><text x="15.00" y="2.81" style="fill:rgb(83.9%,33.3%,48.6%);fill-opacity:1.0">Capranubiana</text></g><g transform="translate(1380.25,883.52)rotate(0)"><text x="15.00" y="2.81" style="fill:rgb(83.9%,33.3%,48.6%);fill-opacity:1.0">Capraibex</text></g><g transform="translate(1348.00,845.17)rotate(0)"><text x="15.00" y="2.81" style="fill:rgb(83.9%,33.3%,48.6%);fill-opacity:1.0">Caprafalconeri</text></g><g transform="translate(1325.82,806.82)rotate(0)"><text x="15.00" y="2.81" style="fill:rgb(83.9%,33.3%,48.6%);fill-opacity:1.0">Caprasibirica</text></g><g transform="translate(1168.81,768.47)rotate(0)"><text x="15.00" y="2.81" style="fill:rgb(28.6%,8.24%,43.9%);fill-opacity:1.0">Hemitragusjemlahicus</text></g><g transform="translate(1384.27,730.11)rotate(0)"><text x="15.00" y="2.81" style="fill:rgb(32.5%,51.8%,63.9%);fill-opacity:1.0">Pseudoisnayaur</text></g><g transform="translate(1210.17,691.76)rotate(0)"><text x="15.00" y="2.81" style="fill:rgb(28.6%,8.24%,43.9%);fill-opacity:1.0">Hemitragusjayakari</text></g><g transform="translate(1239.78,653.41)rotate(0)"><text x="15.00" y="2.81" style="fill:rgb(32.5%,51.8%,63.9%);fill-opacity:1.0">Ammotraguslervia</text></g><g transform="translate(1454.00,615.06)rotate(0)"><text x="15.00" y="2.81" style="fill:rgb(58.8%,5.49%,5.49%);fill-opacity:1.0">Rupicaprarupicapra</text></g><g transform="translate(1543.93,576.70)rotate(0)"><text x="15.00" y="2.81" style="fill:rgb(58.8%,5.49%,5.49%);fill-opacity:1.0">Rupicaprapyrenaica</text></g><g transform="translate(1518.14,538.35)rotate(0)"><text x="15.00" y="2.81" style="fill:rgb(22.4%,56.1%,7.84%);fill-opacity:1.0">Ovisdalli</text></g><g transform="translate(1639.72,500.00)rotate(0)"><text x="15.00" y="2.81" style="fill:rgb(22.4%,56.1%,7.84%);fill-opacity:1.0">Ovisaries</text></g><g transform="translate(1579.80,461.65)rotate(0)"><text x="15.00" y="2.81" style="fill:rgb(28.6%,8.24%,43.9%);fill-opacity:1.0">Hemitragushylocrius</text></g><g transform="translate(1207.65,423.30)rotate(0)"><text x="15.00" y="2.81" style="fill:rgb(32.5%,51.8%,63.9%);fill-opacity:1.0">Oreamnosamericanus</text></g><g transform="translate(1246.03,384.94)rotate(0)"><text x="15.00" y="2.81" style="fill:rgb(32.5%,51.8%,63.9%);fill-opacity:1.0">Ovibosmoschatus</text></g><g transform="translate(1357.77,346.59)rotate(0)"><text x="15.00" y="2.81" style="fill:rgb(32.5%,51.8%,63.9%);fill-opacity:1.0">Capricornissumatrensis</text></g><g transform="translate(1358.43,308.24)rotate(0)"><text x="15.00" y="2.81" style="fill:rgb(32.5%,51.8%,63.9%);fill-opacity:1.0">Budorcastaxicolor</text></g><g transform="translate(1774.79,269.89)rotate(0)"><text x="15.00" y="2.81" style="fill:rgb(32.5%,51.8%,63.9%);fill-opacity:1.0">Aepycerosmelampus</text></g><g transform="translate(1371.59,231.53)rotate(0)"><text x="15.00" y="2.81" style="fill:rgb(32.5%,51.8%,63.9%);fill-opacity:1.0">Hippotragusniger</text></g><g transform="translate(1537.00,193.18)rotate(0)"><text x="15.00" y="2.81" style="fill:rgb(32.5%,51.8%,63.9%);fill-opacity:1.0">Damaliscusdorcas</text></g><g transform="translate(811.77,154.83)rotate(0)"><text x="15.00" y="2.81" style="fill:rgb(32.5%,51.8%,63.9%);fill-opacity:1.0">Pantholopshodgsoni</text></g><g transform="translate(1315.14,116.48)rotate(0)"><text x="15.00" y="2.81" style="fill:rgb(32.5%,51.8%,63.9%);fill-opacity:1.0">Bosindicus</text></g><g transform="translate(1303.28,78.12)rotate(0)"><text x="15.00" y="2.81" style="fill:rgb(32.5%,51.8%,63.9%);fill-opacity:1.0">Muntiacusreevesi</text></g></g></g></g></g></svg>