<svg class="toyplot-canvas-Canvas" xmlns:toyplot="http://www.sandia.gov/toyplot" xmlns:xlink="http://www.w3.org/1999/xlink" xmlns="http://www.w3.org/2000/svg" width="2000.0px" height="1000.0px" viewBox="0 0 2000.0 1000.0" preserveAspectRatio="xMidYMid meet" style="background-color:transparent;border-color:#292724;border-style:none;border-width:1.0;fill:rgb(16.1%,15.3%,14.1%);fill-opacity:1.0;font-family:Helvetica;font-size:12px;opacity:1.0;stroke:rgb(16.1%,15.3%,14.1%);stroke-opacity:1.0;stroke-width:1.0" id="t64bebe80f2404190911e65a345333f75"><g class="toyplot-coordinates-Cartesian" id="t2af36ec1616f495abd72116ae484e34f"><clipPath id="t58ddf9ebca4d44cf8b6ce57a292d1a73"><rect x="30.0" y="30.0" width="1940.0" height="940.0" /></clipPath><g clip-path="url(#t58ddf9ebca4d44cf8b6ce57a292d1a73)"><g class="toytree-mark-Toytree" id="t9e61a241384443dd97a2bb8694f46311"><g class="toytree-Edges" style="fill:none;stroke:rgb(14.9%,14.9%,14.9%);stroke-linecap:round;stroke-opacity:1;stroke-width:2"><path d="M 77.2 261.9 L 77.2 156.0 L 82.2 156.0" id="41,40" /><path d="M 77.2 261.9 L 77.2 551.5 L 82.1 551.5" id="41,39" /><path d="M 82.2 156.0 L 82.2 193.6 L 89.6 193.6" id="40,38" /><path d="M 82.1 551.5 L 82.1 409.6 L 88.1 409.6" id="39,37" /><path d="M 82.1 551.5 L 82.1 693.4 L 84.7 693.4" id="39,36" /><path d="M 89.6 193.6 L 89.6 228.8 L 94.5 228.8" id="38,35" /><path d="M 88.1 409.6 L 88.1 339.3 L 93.0 339.3" id="37,34" /><path d="M 88.1 409.6 L 88.1 479.9 L 90.8 479.9" id="37,33" /><path d="M 84.7 693.4 L 84.7 746.1 L 89.6 746.1" id="36,32" /><path d="M 94.5 228.8 L 94.5 258.9 L 102.2 258.9" id="35,31" /><path d="M 90.8 479.9 L 90.8 419.6 L 95.9 419.6" id="33,30" /><path d="M 90.8 479.9 L 90.8 540.2 L 93.0 540.2" id="33,29" /><path d="M 89.6 746.1 L 89.6 811.4 L 94.5 811.4" id="32,28" /><path d="M 93.0 540.2 L 93.0 500.0 L 95.2 500.0" id="29,27" /><path d="M 93.0 540.2 L 93.0 580.4 L 94.8 580.4" id="29,26" /><path d="M 94.5 811.4 L 94.5 751.1 L 96.6 751.1" id="28,25" /><path d="M 94.5 811.4 L 94.5 871.7 L 99.3 871.7" id="28,24" /><path d="M 96.6 751.1 L 96.6 781.2 L 107.3 781.2" id="25,23" /><path d="M 99.3 871.7 L 99.3 901.8 L 104.3 901.8" id="24,22" /><path d="M 77.2 261.9 L 77.2 78.1 L 1801.7 78.1" id="41,21" /><path d="M 82.2 156.0 L 82.2 118.3 L 84.5 118.3" id="40,20" /><path d="M 89.6 193.6 L 89.6 158.5 L 102.7 158.5" id="38,19" /><path d="M 94.5 228.8 L 94.5 198.7 L 146.7 198.7" id="35,18" /><path d="M 102.2 258.9 L 102.2 238.8 L 110.0 238.8" id="31,17" /><path d="M 102.2 258.9 L 102.2 279.0 L 121.5 279.0" id="31,16" /><path d="M 93.0 339.3 L 93.0 319.2 L 110.2 319.2" id="34,15" /><path d="M 93.0 339.3 L 93.0 359.4 L 99.5 359.4" id="34,14" /><path d="M 95.9 419.6 L 95.9 399.6 L 97.9 399.6" id="30,13" /><path d="M 95.9 419.6 L 95.9 439.7 L 97.9 439.7" id="30,12" /><path d="M 95.2 500.0 L 95.2 479.9 L 100.1 479.9" id="27,11" /><path d="M 95.2 500.0 L 95.2 520.1 L 97.3 520.1" id="27,10" /><path d="M 94.8 580.4 L 94.8 560.3 L 96.8 560.3" id="26,9" /><path d="M 94.8 580.4 L 94.8 600.4 L 99.8 600.4" id="26,8" /><path d="M 84.7 693.4 L 84.7 640.6 L 104.9 640.6" id="36,7" /><path d="M 89.6 746.1 L 89.6 680.8 L 91.8 680.8" id="32,6" /><path d="M 96.6 751.1 L 96.6 721.0 L 101.6 721.0" id="25,5" /><path d="M 107.3 781.2 L 107.3 761.2 L 112.2 761.2" id="23,4" /><path d="M 107.3 781.2 L 107.3 801.3 L 109.4 801.3" id="23,3" /><path d="M 99.3 871.7 L 99.3 841.5 L 107.3 841.5" id="24,2" /><path d="M 104.3 901.8 L 104.3 881.7 L 106.3 881.7" id="22,1" /><path d="M 104.3 901.8 L 104.3 921.9 L 109.2 921.9" id="22,0" /></g><g class="toytree-Nodes" style="fill:rgb(40%,76.1%,64.7%);fill-opacity:1.0;stroke:None;stroke-width:1"><g id="node-0" transform="translate(109.167,921.875)"><circle r="15.0" /></g><g id="node-1" transform="translate(106.272,881.696)"><circle r="15.0" /></g><g id="node-2" transform="translate(107.282,841.518)"><circle r="15.0" /></g><g id="node-3" transform="translate(109.395,801.339)"><circle r="15.0" /></g><g id="node-4" transform="translate(112.184,761.161)"><circle r="15.0" /></g><g id="node-5" transform="translate(101.600,720.982)"><circle r="15.0" /></g><g id="node-6" transform="translate(91.771,680.804)"><circle r="15.0" /></g><g id="node-7" transform="translate(104.854,640.625)"><circle r="15.0" /></g><g id="node-8" transform="translate(99.777,600.446)"><circle r="15.0" /></g><g id="node-9" transform="translate(96.813,560.268)"><circle r="15.0" /></g><g id="node-10" transform="translate(97.255,520.089)"><circle r="15.0" /></g><g id="node-11" transform="translate(100.141,479.911)"><circle r="15.0" /></g><g id="node-12" transform="translate(97.906,439.732)"><circle r="15.0" /></g><g id="node-13" transform="translate(97.888,399.554)"><circle r="15.0" /></g><g id="node-14" transform="translate(99.454,359.375)"><circle r="15.0" /></g><g id="node-15" transform="translate(110.170,319.196)"><circle r="15.0" /></g><g id="node-16" transform="translate(121.545,279.018)"><circle r="15.0" /></g><g id="node-17" transform="translate(110.019,238.839)"><circle r="15.0" /></g><g id="node-18" transform="translate(146.699,198.661)"><circle r="15.0" /></g><g id="node-19" transform="translate(102.737,158.482)"><circle r="15.0" /></g><g id="node-20" transform="translate(84.539,118.304)"><circle r="15.0" /></g><g id="node-21" transform="translate(1801.713,78.125)"><circle r="15.0" /></g><g id="node-22" transform="translate(104.290,901.786)"><circle r="15.0" /></g><g id="node-23" transform="translate(107.350,781.250)"><circle r="15.0" /></g><g id="node-24" transform="translate(99.331,871.652)"><circle r="15.0" /></g><g id="node-25" transform="translate(96.642,751.116)"><circle r="15.0" /></g><g id="node-26" transform="translate(94.808,580.357)"><circle r="15.0" /></g><g id="node-27" transform="translate(95.150,500.000)"><circle r="15.0" /></g><g id="node-28" transform="translate(94.468,811.384)"><circle r="15.0" /></g><g id="node-29" transform="translate(92.953,540.179)"><circle r="15.0" /></g><g id="node-30" transform="translate(95.863,419.643)"><circle r="15.0" /></g><g id="node-31" transform="translate(102.220,258.929)"><circle r="15.0" /></g><g id="node-32" transform="translate(89.599,746.094)"><circle r="15.0" /></g><g id="node-33" transform="translate(90.847,479.911)"><circle r="15.0" /></g><g id="node-34" transform="translate(92.965,339.286)"><circle r="15.0" /></g><g id="node-35" transform="translate(94.512,228.795)"><circle r="15.0" /></g><g id="node-36" transform="translate(84.709,693.359)"><circle r="15.0" /></g><g id="node-37" transform="translate(88.118,409.598)"><circle r="15.0" /></g><g id="node-38" transform="translate(89.566,193.638)"><circle r="15.0" /></g><g id="node-39" transform="translate(82.140,551.479)"><circle r="15.0" /></g><g id="node-40" transform="translate(82.156,155.971)"><circle r="15.0" /></g><g id="node-41" transform="translate(77.229,261.858)"><circle r="15.0" /></g></g><g class="toytree-NodeLabels" style="fill:rgb(14.9%,14.9%,14.9%);fill-opacity:1.0;font-size:9px;stroke:none"><g transform="translate(89.28,904.09)"><text>10/0.96</text></g><g transform="translate(92.34,783.55)"><text>63/0.98</text></g><g transform="translate(84.32,873.95)"><text>90/0.88</text></g><g transform="translate(81.63,753.42)"><text>78/0.31</text></g><g transform="translate(82.30,582.66)"><text>6/0.11</text></g><g transform="translate(80.14,502.30)"><text>13/0.11</text></g><g transform="translate(79.46,813.68)"><text>44/0.81</text></g><g transform="translate(77.94,542.48)"><text>40/0.04</text></g><g transform="translate(80.85,421.94)"><text>53/0.97</text></g><g transform="translate(87.21,261.23)"><text>74/0.97</text></g><g transform="translate(74.59,748.39)"><text>27/0.77</text></g><g transform="translate(75.83,482.21)"><text>45/0.11</text></g><g transform="translate(77.95,341.59)"><text>19/0.43</text></g><g transform="translate(82.00,231.09)"><text>10/0.8</text></g><g transform="translate(69.70,695.66)"><text>57/0.19</text></g><g transform="translate(75.61,411.90)"><text>18/0.8</text></g><g transform="translate(74.55,195.94)"><text>20/0.73</text></g><g transform="translate(69.63,553.78)"><text>7/0.29</text></g><g transform="translate(67.14,158.27)"><text>20/0.52</text></g></g><g class="toytree-TipLabels" style="fill:rgb(14.9%,14.9%,14.9%);fill-opacity:1.0;font-family:helvetica;font-size:11px;font-weight:normal;stroke:none;white-space:pre"><g transform="translate(109.17,921.88)rotate(0)"><text x="15.00" y="2.81" style="fill:rgb(83.9%,33.3%,48.6%);fill-opacity:1.0">Ovisdalli</text></g><g transform="translate(106.27,881.70)rotate(0)"><text x="15.00" y="2.81" style="fill:rgb(28.6%,8.24%,43.9%);fill-opacity:1.0">Ovisaries</text></g><g transform="translate(107.28,841.52)rotate(0)"><text x="15.00" y="2.81" style="fill:rgb(32.5%,51.8%,63.9%);fill-opacity:1.0">Hemitragushylocrius</text></g><g transform="translate(109.40,801.34)rotate(0)"><text x="15.00" y="2.81" style="fill:rgb(83.9%,33.3%,48.6%);fill-opacity:1.0">Rupicaprarupicapra</text></g><g transform="translate(112.18,761.16)rotate(0)"><text x="15.00" y="2.81" style="fill:rgb(83.9%,33.3%,48.6%);fill-opacity:1.0">Rupicaprapyrenaica</text></g><g transform="translate(101.60,720.98)rotate(0)"><text x="15.00" y="2.81" style="fill:rgb(83.9%,33.3%,48.6%);fill-opacity:1.0">Budorcastaxicolor</text></g><g transform="translate(91.77,680.80)rotate(0)"><text x="15.00" y="2.81" style="fill:rgb(28.6%,8.24%,43.9%);fill-opacity:1.0">Capricornissumatrensis</text></g><g transform="translate(104.85,640.62)rotate(0)"><text x="15.00" y="2.81" style="fill:rgb(32.5%,51.8%,63.9%);fill-opacity:1.0">Oreamnosamericanus</text></g><g transform="translate(99.78,600.45)rotate(0)"><text x="15.00" y="2.81" style="fill:rgb(32.5%,51.8%,63.9%);fill-opacity:1.0">Caprasibirica</text></g><g transform="translate(96.81,560.27)rotate(0)"><text x="15.00" y="2.81" style="fill:rgb(32.5%,51.8%,63.9%);fill-opacity:1.0">Hemitragusjemlahicus</text></g><g transform="translate(97.25,520.09)rotate(0)"><text x="15.00" y="2.81" style="fill:rgb(32.5%,51.8%,63.9%);fill-opacity:1.0">Pseudoisnayaur</text></g><g transform="translate(100.14,479.91)rotate(0)"><text x="15.00" y="2.81" style="fill:rgb(32.5%,51.8%,63.9%);fill-opacity:1.0">Caprafalconeri</text></g><g transform="translate(97.91,439.73)rotate(0)"><text x="15.00" y="2.81" style="fill:rgb(32.5%,51.8%,63.9%);fill-opacity:1.0">Capranubiana</text></g><g transform="translate(97.89,399.55)rotate(0)"><text x="15.00" y="2.81" style="fill:rgb(32.5%,51.8%,63.9%);fill-opacity:1.0">Capraibex</text></g><g transform="translate(99.45,359.38)rotate(0)"><text x="15.00" y="2.81" style="fill:rgb(32.5%,51.8%,63.9%);fill-opacity:1.0">Hemitragusjayakari</text></g><g transform="translate(110.17,319.20)rotate(0)"><text x="15.00" y="2.81" style="fill:rgb(22.4%,56.1%,7.84%);fill-opacity:1.0">Ammotraguslervia</text></g><g transform="translate(121.55,279.02)rotate(0)"><text x="15.00" y="2.81" style="fill:rgb(22.4%,56.1%,7.84%);fill-opacity:1.0">Hippotragusniger</text></g><g transform="translate(110.02,238.84)rotate(0)"><text x="15.00" y="2.81" style="fill:rgb(28.6%,8.24%,43.9%);fill-opacity:1.0">Damaliscuspygargus</text></g><g transform="translate(146.70,198.66)rotate(0)"><text x="15.00" y="2.81" style="fill:rgb(58.8%,5.49%,5.49%);fill-opacity:1.0">Aepycerosmelampus</text></g><g transform="translate(102.74,158.48)rotate(0)"><text x="15.00" y="2.81" style="fill:rgb(58.8%,5.49%,5.49%);fill-opacity:1.0">Pantholopshodgsonii</text></g><g transform="translate(84.54,118.30)rotate(0)"><text x="15.00" y="2.81" style="fill:rgb(32.5%,51.8%,63.9%);fill-opacity:1.0">Ovibosmoschatus</text></g><g transform="translate(1801.71,78.13)rotate(0)"><text x="15.00" y="2.81" style="fill:rgb(32.5%,51.8%,63.9%);fill-opacity:1.0">Muntiacusreevesi</text></g></g></g></g></g></svg>