<svg class="toyplot-canvas-Canvas" xmlns:toyplot="http://www.sandia.gov/toyplot" xmlns:xlink="http://www.w3.org/1999/xlink" xmlns="http://www.w3.org/2000/svg" width="2000.0px" height="1000.0px" viewBox="0 0 2000.0 1000.0" preserveAspectRatio="xMidYMid meet" style="background-color:transparent;border-color:#292724;border-style:none;border-width:1.0;fill:rgb(16.1%,15.3%,14.1%);fill-opacity:1.0;font-family:Helvetica;font-size:12px;opacity:1.0;stroke:rgb(16.1%,15.3%,14.1%);stroke-opacity:1.0;stroke-width:1.0" id="t32d169b882bd41378ecf57c0a8618464"><g class="toyplot-coordinates-Cartesian" id="t3f8ed8055b9b45b0b782c1a3cccc3439"><clipPath id="te0763ea6bb6d4e9aa3c330c7b0fbaf1f"><rect x="30.0" y="30.0" width="1940.0" height="940.0" /></clipPath><g clip-path="url(#te0763ea6bb6d4e9aa3c330c7b0fbaf1f)"><g class="toytree-mark-Toytree" id="t0a9bb6ce4e0a493caf9f3f8ba9be562c"><g class="toytree-Edges" style="fill:none;stroke:rgb(14.9%,14.9%,14.9%);stroke-linecap:round;stroke-opacity:1;stroke-width:2"><path d="M 76.9 140.1 L 76.9 221.8 L 177.5 221.8" id="39,38" /><path d="M 177.5 221.8 L 177.5 281.1 L 209.9 281.1" id="38,37" /><path d="M 209.9 281.1 L 209.9 357.5 L 219.1 357.5" id="37,36" /><path d="M 219.1 357.5 L 219.1 468.0 L 228.3 468.0" id="36,35" /><path d="M 228.3 468.0 L 228.3 326.0 L 236.9 326.0" id="35,34" /><path d="M 228.3 468.0 L 228.3 610.1 L 234.8 610.1" id="35,33" /><path d="M 236.9 326.0 L 236.9 362.9 L 242.5 362.9" id="34,32" /><path d="M 234.8 610.1 L 234.8 494.7 L 247.5 494.7" id="33,31" /><path d="M 234.8 610.1 L 234.8 725.4 L 239.8 725.4" id="33,30" /><path d="M 242.5 362.9 L 242.5 394.5 L 247.8 394.5" id="32,29" /><path d="M 247.5 494.7 L 247.5 531.6 L 249.7 531.6" id="31,28" /><path d="M 239.8 725.4 L 239.8 658.2 L 254.5 658.2" id="30,27" /><path d="M 239.8 725.4 L 239.8 792.7 L 245.4 792.7" id="30,26" /><path d="M 249.7 531.6 L 249.7 563.3 L 252.8 563.3" id="28,25" /><path d="M 254.5 658.2 L 254.5 689.8 L 263.5 689.8" id="27,24" /><path d="M 245.4 792.7 L 245.4 832.2 L 249.2 832.2" id="26,23" /><path d="M 249.2 832.2 L 249.2 869.1 L 251.3 869.1" id="23,22" /><path d="M 251.3 869.1 L 251.3 900.8 L 260.2 900.8" id="22,21" /><path d="M 76.9 140.1 L 76.9 78.1 L 118.6 78.1" id="39,20" /><path d="M 76.9 140.1 L 76.9 120.3 L 1782.4 120.3" id="39,19" /><path d="M 177.5 221.8 L 177.5 162.5 L 238.5 162.5" id="38,18" /><path d="M 209.9 281.1 L 209.9 204.7 L 242.4 204.7" id="37,17" /><path d="M 219.1 357.5 L 219.1 246.9 L 228.0 246.9" id="36,16" /><path d="M 236.9 326.0 L 236.9 289.1 L 255.1 289.1" id="34,15" /><path d="M 242.5 362.9 L 242.5 331.3 L 245.1 331.3" id="32,14" /><path d="M 247.8 394.5 L 247.8 373.4 L 257.1 373.4" id="29,13" /><path d="M 247.8 394.5 L 247.8 415.6 L 255.8 415.6" id="29,12" /><path d="M 247.5 494.7 L 247.5 457.8 L 252.9 457.8" id="31,11" /><path d="M 249.7 531.6 L 249.7 500.0 L 251.9 500.0" id="28,10" /><path d="M 252.8 563.3 L 252.8 542.2 L 261.5 542.2" id="25,9" /><path d="M 252.8 563.3 L 252.8 584.4 L 261.6 584.4" id="25,8" /><path d="M 254.5 658.2 L 254.5 626.6 L 264.0 626.6" id="27,7" /><path d="M 263.5 689.8 L 263.5 668.8 L 269.5 668.8" id="24,6" /><path d="M 263.5 689.8 L 263.5 710.9 L 294.9 710.9" id="24,5" /><path d="M 245.4 792.7 L 245.4 753.1 L 266.6 753.1" id="26,4" /><path d="M 249.2 832.2 L 249.2 795.3 L 251.4 795.3" id="23,3" /><path d="M 251.3 869.1 L 251.3 837.5 L 256.7 837.5" id="22,2" /><path d="M 260.2 900.8 L 260.2 879.7 L 262.5 879.7" id="21,1" /><path d="M 260.2 900.8 L 260.2 921.9 L 265.5 921.9" id="21,0" /></g><g class="toytree-Nodes" style="fill:rgb(40%,76.1%,64.7%);fill-opacity:1.0;stroke:None;stroke-width:1"><g id="node-0" transform="translate(265.538,921.875)"><circle r="15.0" /></g><g id="node-1" transform="translate(262.522,879.688)"><circle r="15.0" /></g><g id="node-2" transform="translate(256.745,837.500)"><circle r="15.0" /></g><g id="node-3" transform="translate(251.443,795.312)"><circle r="15.0" /></g><g id="node-4" transform="translate(266.597,753.125)"><circle r="15.0" /></g><g id="node-5" transform="translate(294.885,710.938)"><circle r="15.0" /></g><g id="node-6" transform="translate(269.542,668.750)"><circle r="15.0" /></g><g id="node-7" transform="translate(263.969,626.562)"><circle r="15.0" /></g><g id="node-8" transform="translate(261.560,584.375)"><circle r="15.0" /></g><g id="node-9" transform="translate(261.531,542.188)"><circle r="15.0" /></g><g id="node-10" transform="translate(251.853,500.000)"><circle r="15.0" /></g><g id="node-11" transform="translate(252.857,457.813)"><circle r="15.0" /></g><g id="node-12" transform="translate(255.829,415.625)"><circle r="15.0" /></g><g id="node-13" transform="translate(257.063,373.438)"><circle r="15.0" /></g><g id="node-14" transform="translate(245.056,331.250)"><circle r="15.0" /></g><g id="node-15" transform="translate(255.087,289.063)"><circle r="15.0" /></g><g id="node-16" transform="translate(228.016,246.875)"><circle r="15.0" /></g><g id="node-17" transform="translate(242.387,204.688)"><circle r="15.0" /></g><g id="node-18" transform="translate(238.451,162.500)"><circle r="15.0" /></g><g id="node-19" transform="translate(1782.387,120.312)"><circle r="15.0" /></g><g id="node-20" transform="translate(118.565,78.125)"><circle r="15.0" /></g><g id="node-21" transform="translate(260.189,900.781)"><circle r="15.0" /></g><g id="node-22" transform="translate(251.345,869.141)"><circle r="15.0" /></g><g id="node-23" transform="translate(249.163,832.227)"><circle r="15.0" /></g><g id="node-24" transform="translate(263.529,689.844)"><circle r="15.0" /></g><g id="node-25" transform="translate(252.834,563.281)"><circle r="15.0" /></g><g id="node-26" transform="translate(245.366,792.676)"><circle r="15.0" /></g><g id="node-27" transform="translate(254.538,658.203)"><circle r="15.0" /></g><g id="node-28" transform="translate(249.687,531.641)"><circle r="15.0" /></g><g id="node-29" transform="translate(247.809,394.531)"><circle r="15.0" /></g><g id="node-30" transform="translate(239.798,725.439)"><circle r="15.0" /></g><g id="node-31" transform="translate(247.475,494.727)"><circle r="15.0" /></g><g id="node-32" transform="translate(242.537,362.891)"><circle r="15.0" /></g><g id="node-33" transform="translate(234.844,610.083)"><circle r="15.0" /></g><g id="node-34" transform="translate(236.899,325.977)"><circle r="15.0" /></g><g id="node-35" transform="translate(228.299,468.030)"><circle r="15.0" /></g><g id="node-36" transform="translate(219.125,357.452)"><circle r="15.0" /></g><g id="node-37" transform="translate(209.880,281.070)"><circle r="15.0" /></g><g id="node-38" transform="translate(177.485,221.785)"><circle r="15.0" /></g><g id="node-39" transform="translate(76.928,140.074)"><circle r="15.0" /></g></g><g class="toytree-NodeLabels" style="fill:rgb(14.9%,14.9%,14.9%);fill-opacity:1.0;font-size:9px;stroke:none"><g transform="translate(247.68,903.08)"><text>74/1.0</text></g><g transform="translate(236.33,871.44)"><text>79/0.21</text></g><g transform="translate(236.65,834.53)"><text>54/0.3</text></g><g transform="translate(248.52,692.14)"><text>37/0.93</text></g><g transform="translate(237.82,565.58)"><text>87/0.28</text></g><g transform="translate(232.86,794.98)"><text>7/0.88</text></g><g transform="translate(239.53,660.50)"><text>39/0.98</text></g><g transform="translate(234.68,533.94)"><text>17/0.22</text></g><g transform="translate(232.80,396.83)"><text>18/0.66</text></g><g transform="translate(224.79,727.74)"><text>54/0.58</text></g><g transform="translate(234.96,497.03)"><text>7/0.99</text></g><g transform="translate(227.53,365.19)"><text>52/0.57</text></g><g transform="translate(219.83,612.38)"><text>62/0.53</text></g><g transform="translate(224.39,328.28)"><text>34/0.7</text></g><g transform="translate(213.29,470.33)"><text>36/0.87</text></g><g transform="translate(204.11,359.75)"><text>68/0.94</text></g><g transform="translate(194.87,283.37)"><text>85/0.95</text></g><g transform="translate(162.47,224.08)"><text>43/0.93</text></g></g><g class="toytree-TipLabels" style="fill:rgb(14.9%,14.9%,14.9%);fill-opacity:1.0;font-family:helvetica;font-size:11px;font-weight:normal;stroke:none;white-space:pre"><g transform="translate(265.54,921.88)rotate(0)"><text x="15.00" y="2.81" style="fill:rgb(58.8%,5.49%,5.49%);fill-opacity:1.0">Capranubiana</text></g><g transform="translate(262.52,879.69)rotate(0)"><text x="15.00" y="2.81" style="fill:rgb(32.5%,51.8%,63.9%);fill-opacity:1.0">Caprafalconeri</text></g><g transform="translate(256.75,837.50)rotate(0)"><text x="15.00" y="2.81" style="fill:rgb(32.5%,51.8%,63.9%);fill-opacity:1.0">Caprasibirica</text></g><g transform="translate(251.44,795.31)rotate(0)"><text x="15.00" y="2.81" style="fill:rgb(32.5%,51.8%,63.9%);fill-opacity:1.0">Capraibex</text></g><g transform="translate(266.60,753.12)rotate(0)"><text x="15.00" y="2.81" style="fill:rgb(32.5%,51.8%,63.9%);fill-opacity:1.0">Budorcastaxicolor</text></g><g transform="translate(294.88,710.94)rotate(0)"><text x="15.00" y="2.81" style="fill:rgb(32.5%,51.8%,63.9%);fill-opacity:1.0">Ovisdalli</text></g><g transform="translate(269.54,668.75)rotate(0)"><text x="15.00" y="2.81" style="fill:rgb(32.5%,51.8%,63.9%);fill-opacity:1.0">Ovisaries</text></g><g transform="translate(263.97,626.56)rotate(0)"><text x="15.00" y="2.81" style="fill:rgb(32.5%,51.8%,63.9%);fill-opacity:1.0">Hemitragushylocrius</text></g><g transform="translate(261.56,584.38)rotate(0)"><text x="15.00" y="2.81" style="fill:rgb(58.8%,5.49%,5.49%);fill-opacity:1.0">Hemitragusjayakari</text></g><g transform="translate(261.53,542.19)rotate(0)"><text x="15.00" y="2.81" style="fill:rgb(83.9%,33.3%,48.6%);fill-opacity:1.0">Hemitragusjemlahicus</text></g><g transform="translate(251.85,500.00)rotate(0)"><text x="15.00" y="2.81" style="fill:rgb(83.9%,33.3%,48.6%);fill-opacity:1.0">Pseudoisnayaur</text></g><g transform="translate(252.86,457.81)rotate(0)"><text x="15.00" y="2.81" style="fill:rgb(83.9%,33.3%,48.6%);fill-opacity:1.0">Ammotraguslervia</text></g><g transform="translate(255.83,415.63)rotate(0)"><text x="15.00" y="2.81" style="fill:rgb(83.9%,33.3%,48.6%);fill-opacity:1.0">Ovibosmoschatus</text></g><g transform="translate(257.06,373.44)rotate(0)"><text x="15.00" y="2.81" style="fill:rgb(32.5%,51.8%,63.9%);fill-opacity:1.0">Oreamnosamericanus</text></g><g transform="translate(245.06,331.25)rotate(0)"><text x="15.00" y="2.81" style="fill:rgb(22.4%,56.1%,7.84%);fill-opacity:1.0">Capricornissumatrensis</text></g><g transform="translate(255.09,289.06)rotate(0)"><text x="15.00" y="2.81" style="fill:rgb(22.4%,56.1%,7.84%);fill-opacity:1.0">Rupicaprarupicapra</text></g><g transform="translate(228.02,246.88)rotate(0)"><text x="15.00" y="2.81" style="fill:rgb(28.6%,8.24%,43.9%);fill-opacity:1.0">Pantholopshodgsonii</text></g><g transform="translate(242.39,204.69)rotate(0)"><text x="15.00" y="2.81" style="fill:rgb(32.5%,51.8%,63.9%);fill-opacity:1.0">Aepycerosmelampus</text></g><g transform="translate(238.45,162.50)rotate(0)"><text x="15.00" y="2.81" style="fill:rgb(32.5%,51.8%,63.9%);fill-opacity:1.0">Bosindicus</text></g><g transform="translate(1782.39,120.31)rotate(0)"><text x="15.00" y="2.81" style="fill:rgb(28.6%,8.24%,43.9%);fill-opacity:1.0">Rupicaprapyrenaica</text></g><g transform="translate(118.56,78.12)rotate(0)"><text x="15.00" y="2.81" style="fill:rgb(28.6%,8.24%,43.9%);fill-opacity:1.0">Muntiacusreevesi</text></g></g></g></g></g></svg>